<svg width="80" height="80" viewBox="0 0 80 80" fill="none" xmlns="http://www.w3.org/2000/svg">
<rect width="80" height="80" rx="16" fill="#5390A5" fill-opacity="0.1"/>
<path fill-rule="evenodd" clip-rule="evenodd" d="M21.6694 19.639C24.0625 17.2657 27.4001 16 31.2 16H42.046C45.5484 16 48.9041 17.3594 51.3896 19.8244L58.1437 26.5226C60.6032 28.9618 62 32.2882 62 35.7891V50.9091C62 54.6776 60.7238 57.9876 58.3306 60.361C55.9375 62.7343 52.5999 64 48.8 64H31.2C27.4001 64 24.0625 62.7343 21.6694 60.361C19.2763 57.9876 18 54.6776 18 50.9091V29.0909C18 25.3224 19.2763 22.0124 21.6694 19.639ZM24.7806 22.7246C23.3237 24.1694 22.4 26.314 22.4 29.0909V50.9091C22.4 53.686 23.3237 55.8306 24.7806 57.2754C26.2375 58.7202 28.3999 59.6364 31.2 59.6364H48.8C51.6001 59.6364 53.7625 58.7202 55.2194 57.2754C56.6763 55.8306 57.6 53.686 57.6 50.9091V35.7891C57.6 33.4428 56.6648 31.2271 55.0324 29.6082L48.2784 22.91C46.6279 21.2731 44.3955 20.3636 42.046 20.3636H31.2C28.3999 20.3636 26.2375 21.2798 24.7806 22.7246Z" fill="#5390A5"/>
<path fill-rule="evenodd" clip-rule="evenodd" d="M36.0555 42.799C36.9147 43.6511 36.9147 45.0325 36.0555 45.8846L33.2112 48.7054L36.0555 51.5263C36.9147 52.3783 36.9147 53.7598 36.0555 54.6118C35.1964 55.4639 33.8034 55.4639 32.9443 54.6118L28.5443 50.2482C27.6851 49.3962 27.6851 48.0147 28.5443 47.1626L32.9443 42.799C33.8034 41.947 35.1964 41.947 36.0555 42.799Z" fill="#5390A5"/>
<path fill-rule="evenodd" clip-rule="evenodd" d="M43.9442 42.799C44.8033 41.947 46.1963 41.947 47.0554 42.799L51.4554 47.1626C52.3146 48.0147 52.3146 49.3962 51.4554 50.2482L47.0554 54.6118C46.1963 55.4639 44.8033 55.4639 43.9442 54.6118C43.085 53.7598 43.085 52.3783 43.9442 51.5263L46.7885 48.7054L43.9442 45.8846C43.085 45.0325 43.085 43.6511 43.9442 42.799Z" fill="#5390A5"/>
</svg>
