<svg width="40" height="40" viewBox="0 0 40 40" fill="none" xmlns="http://www.w3.org/2000/svg">
<rect x="1" y="1" width="38" height="38" rx="19" fill="white" stroke="#5390A5" stroke-width="2"/>
<path d="M19.3145 14.2861L28.1307 10L29.9993 11.4054L28.9513 17.1918L26.3536 16.7067L26.9468 13.4809L20.4613 16.6592L19.3145 14.2861Z" fill="black"/>
<path d="M14.5723 20.9008L10.3359 11.9811L11.725 10.0906L17.4419 11.1508L16.9648 13.779L13.774 13.1789L16.9154 19.743L14.5723 20.9008Z" fill="#5390A5"/>
<path d="M20.6848 25.7113L11.8685 29.9999L10 28.5921L11.048 22.8081L13.6456 23.2907L13.0525 26.5191L19.538 23.3407L20.6848 25.7113Z" fill="black"/>
<path d="M25.4281 19.0972L29.6645 28.0194L28.2755 29.9074L22.5586 28.8472L23.0356 26.2215L26.2265 26.8191L23.085 20.2575L25.4281 19.0972Z" fill="black"/>
</svg>
