<svg width="48" height="48" viewBox="0 0 48 48" fill="none" xmlns="http://www.w3.org/2000/svg">
<path d="M34.8868 4.48247C31.973 1.58916 28.1152 0 24.0116 0C23.9744 0 23.9365 9.375e-05 23.8993 0.000375C19.893 0.0285938 16.0998 1.59825 13.2183 4.42022C10.3362 7.24275 8.68896 11.0025 8.58012 15.0067C8.46659 19.1794 9.99499 23.1314 12.8838 26.1349C15.1586 28.5 16.4114 31.6458 16.4114 34.9929V41.4319C16.4114 42.7548 17.3299 43.8666 18.5623 44.1648V45.0233C18.5623 46.6646 19.8976 47.9999 21.5389 47.9999H26.4608C28.1021 47.9999 29.4373 46.6646 29.4373 45.0233V44.1697C30.6806 43.8792 31.6096 42.7624 31.6096 41.4319V34.9931C31.6096 31.6897 32.8968 28.5076 35.2343 26.033C37.9508 23.157 39.4468 19.3937 39.4468 15.4362C39.4468 11.2925 37.8274 7.40231 34.8868 4.48247ZM27.5624 45.0234C27.5624 45.6308 27.0683 46.125 26.4609 46.125H21.539C20.9316 46.125 20.4374 45.6308 20.4374 45.0234V44.2441H27.5624V45.0234ZM29.7347 41.4319C29.7347 41.9486 29.3143 42.3691 28.7975 42.3691H28.4999H19.4999H19.2237C18.7069 42.3691 18.2865 41.9486 18.2865 41.4319V36.0998H29.7347V41.4319ZM22.5379 34.2248V22.3667H25.4586V34.2248H22.5379V34.2248ZM33.8713 24.7454C31.3849 27.3779 29.9396 30.7186 29.755 34.2248H27.3336V22.3667H28.1762C29.6747 22.3667 30.8939 21.1476 30.8939 19.649V19.5037C30.8939 18.0051 29.6747 16.7859 28.1762 16.7859C26.6777 16.7859 25.4586 18.0051 25.4586 19.5037V20.4917H22.5379V19.5037C22.5379 18.0051 21.3188 16.7859 19.8203 16.7859H19.6356C18.1371 16.7859 16.918 18.0051 16.918 19.5037V19.649C16.918 21.1475 18.1371 22.3667 19.6356 22.3667H20.6629V34.2248H18.2672C18.0882 30.6788 16.6725 27.369 14.2352 24.835C11.6974 22.1965 10.3546 18.7241 10.4545 15.0577C10.6508 7.83984 16.688 1.92628 23.9126 1.87528C27.5589 1.84969 30.9826 3.24806 33.5658 5.81297C36.1493 8.37816 37.5719 11.7958 37.5719 15.4362C37.5719 18.913 36.2576 22.219 33.8713 24.7454ZM27.3336 20.4917V19.5037C27.3336 19.0389 27.7116 18.6609 28.1762 18.6609C28.6409 18.6609 29.0189 19.039 29.0189 19.5037V19.649C29.0189 20.1137 28.6409 20.4917 28.1762 20.4917H27.3336ZM20.6628 19.5037V20.4917H19.6355C19.1709 20.4917 18.7929 20.1137 18.7929 19.649V19.5037C18.7929 19.0389 19.1709 18.6609 19.6355 18.6609H19.8202C20.2848 18.6609 20.6628 19.0391 20.6628 19.5037Z" fill="#5390A5"/>
<path d="M34.0598 11.3781C33.2545 9.37874 31.8848 7.67728 30.099 6.45759C28.2684 5.20743 26.1227 4.55493 23.8992 4.57059C23.3814 4.57424 22.9646 4.99696 22.9683 5.51474C22.9719 6.03028 23.391 6.44559 23.9056 6.44559C23.9078 6.44559 23.9102 6.44559 23.9123 6.44559C23.9344 6.44549 23.9558 6.4454 23.9778 6.4454C27.6696 6.4454 30.9398 8.65087 32.3208 12.0787C32.468 12.4441 32.8194 12.6661 33.1906 12.6661C33.3072 12.6661 33.4259 12.6442 33.5407 12.5979C34.0208 12.4044 34.2534 11.8582 34.0598 11.3781Z" fill="#5390A5"/>
<path d="M34.5695 14.7732C34.3952 14.5988 34.1533 14.4985 33.9067 14.4985C33.6602 14.4985 33.4183 14.5988 33.2439 14.7732C33.0686 14.9476 32.9692 15.1895 32.9692 15.436C32.9692 15.6835 33.0686 15.9245 33.2439 16.0988C33.4183 16.2742 33.6592 16.3735 33.9067 16.3735C34.1533 16.3735 34.3952 16.2742 34.5695 16.0988C34.7438 15.9245 34.8442 15.6835 34.8442 15.436C34.8442 15.1895 34.7439 14.9476 34.5695 14.7732Z" fill="#5390A5"/>
<path d="M43.5405 4.66959C43.1743 4.3035 42.5809 4.3035 42.2146 4.66959L40.4679 6.41625C40.1018 6.78234 40.1018 7.37596 40.4679 7.74215C40.651 7.92525 40.8909 8.01675 41.1309 8.01675C41.3709 8.01675 41.6107 7.92525 41.7938 7.74215L43.5405 5.9955C43.9066 5.6294 43.9066 5.03578 43.5405 4.66959Z" fill="#5390A5"/>
<path d="M43.5404 24.8772L41.7938 23.1305C41.4277 22.7644 40.8343 22.7644 40.4679 23.1305C40.1018 23.4966 40.1018 24.0902 40.4679 24.4563L42.2146 26.203C42.3977 26.3861 42.6376 26.4776 42.8775 26.4776C43.1174 26.4776 43.3573 26.386 43.5404 26.203C43.9065 25.8369 43.9065 25.2433 43.5404 24.8772Z" fill="#5390A5"/>
<path d="M47.0625 14.499H44.5923C44.0746 14.499 43.6548 14.9187 43.6548 15.4365C43.6548 15.9543 44.0746 16.374 44.5923 16.374H47.0625C47.5802 16.374 48 15.9543 48 15.4365C48 14.9187 47.5802 14.499 47.0625 14.499Z" fill="#5390A5"/>
<path d="M7.5321 6.41625L5.78554 4.66959C5.41935 4.3035 4.82591 4.3035 4.45963 4.66959C4.09354 5.03568 4.09354 5.62931 4.45963 5.9955L6.20628 7.74215C6.38938 7.92525 6.62929 8.01675 6.86919 8.01675C7.1091 8.01675 7.349 7.92525 7.5321 7.74215C7.89819 7.37596 7.89819 6.78243 7.5321 6.41625Z" fill="#5390A5"/>
<path d="M7.5321 23.1306C7.166 22.7644 6.57247 22.7644 6.20628 23.1306L4.45963 24.8773C4.09354 25.2434 4.09354 25.8371 4.45963 26.2032C4.64272 26.3863 4.88263 26.4778 5.12253 26.4778C5.36244 26.4778 5.60235 26.3862 5.78544 26.2032L7.5321 24.4565C7.89819 24.0903 7.89819 23.4968 7.5321 23.1306Z" fill="#5390A5"/>
<path d="M3.40772 14.499H0.9375C0.419813 14.499 0 14.9187 0 15.4365C0 15.9543 0.419813 16.374 0.9375 16.374H3.40772C3.92541 16.374 4.34522 15.9543 4.34522 15.4365C4.34522 14.9187 3.92541 14.499 3.40772 14.499Z" fill="#5390A5"/>
</svg>
