<svg width="60" height="60" viewBox="0 0 60 60" fill="none" xmlns="http://www.w3.org/2000/svg">
<path fill-rule="evenodd" clip-rule="evenodd" d="M50.8998 9.05508C55.6866 13.8418 58.8018 19.857 59.9289 26.4673C60.0935 27.3917 59.4603 28.2781 58.5359 28.4174C58.5257 28.4187 58.5155 28.42 58.5056 28.4213C58.4165 28.4325 58.3357 28.4428 58.2446 28.4428C57.4215 28.4428 56.6997 27.8602 56.5604 27.0245C55.56 21.1233 52.774 15.7414 48.4938 11.4611C44.2136 7.19355 38.8316 4.39494 32.9305 3.39453C31.9934 3.22991 31.3729 2.35613 31.5248 1.41904C31.6895 0.494609 32.5632 -0.138561 33.4877 0.0260632C40.098 1.15311 46.1131 4.26831 50.8998 9.05508ZM47.4182 37.1678C46.1899 35.8888 44.7083 35.205 43.138 35.205C41.5804 35.205 40.0861 35.8762 38.8071 37.1552L34.8055 41.1442C34.5879 41.027 34.3703 40.9154 34.1564 40.8056L34.1552 40.805C34.0458 40.7489 33.9374 40.6933 33.8304 40.6376C33.3745 40.4097 32.944 40.1944 32.5767 39.9665C28.8284 37.5857 25.4219 34.4832 22.1547 30.4689C20.5718 28.4681 19.5081 26.7838 18.7356 25.0743C19.6738 24.2162 20.55 23.3271 21.4015 22.463L21.6735 22.187C21.8508 22.0097 22.0281 21.8293 22.2054 21.6488C22.3827 21.4684 22.56 21.2879 22.7373 21.1106C25.3966 18.4513 25.3966 15.0069 22.7373 12.3476L19.2801 8.89045L19.2801 8.89036L19.2798 8.89009C18.8873 8.49763 18.4822 8.09253 18.1024 7.68743C17.3426 6.9023 16.5448 6.09184 15.7217 5.33203C14.4934 4.11634 13.0244 3.47051 11.4795 3.47051C9.93455 3.47051 8.44027 4.11634 7.17392 5.33203L7.1486 5.35736L2.84304 9.70091C1.22212 11.3218 0.297691 13.2973 0.0950768 15.5894C-0.208845 19.2871 0.880208 22.7316 1.71599 24.9856C3.76747 30.5196 6.83201 35.6482 11.4035 41.1442C16.9501 47.7671 23.6237 52.9971 31.2471 56.6822C34.1597 58.0625 38.0473 59.6961 42.3909 59.9746C42.6568 59.9873 42.9354 60 43.1887 60C46.1139 60 48.5706 58.9489 50.4955 56.8595C50.5018 56.8468 50.5113 56.8373 50.5208 56.8278C50.5303 56.8183 50.5398 56.8088 50.5461 56.7961C51.1558 56.0575 51.8523 55.3839 52.5855 54.675L52.5855 54.675L52.7622 54.5041C53.3067 53.9849 53.8639 53.4403 54.4085 52.8705C55.6621 51.5661 56.3206 50.0465 56.3206 48.4889C56.3206 46.9187 55.6495 45.4117 54.3705 44.1454L47.4182 37.1678ZM50.6958 51.7659L50.6956 51.7662C50.6338 51.8262 50.5716 51.8867 50.5089 51.9478C50.475 51.9808 50.441 52.014 50.4068 52.0474C49.5837 52.8325 48.7479 53.6556 47.9628 54.58C46.6838 55.9477 45.1768 56.5935 43.2013 56.5935C43.0114 56.5935 42.8088 56.5935 42.6188 56.5809C38.8578 56.3402 35.3627 54.8713 32.7414 53.6176C25.5739 50.1478 19.2801 45.2218 14.0502 38.9787C9.73193 33.7741 6.84468 28.962 4.9325 23.7953C3.7548 20.6421 3.32425 18.1854 3.5142 15.868C3.64083 14.3864 4.21069 13.158 5.26175 12.107L9.57997 7.78873C10.2005 7.20622 10.859 6.88963 11.5048 6.88963C12.3026 6.88963 12.9484 7.37084 13.3537 7.77607L13.3917 7.81406C14.1641 8.53588 14.8986 9.28302 15.6711 10.0808C15.8689 10.285 16.07 10.4892 16.2726 10.6951L16.2727 10.6952C16.4721 10.8977 16.6731 11.1019 16.8741 11.3092L20.3312 14.7663C21.6735 16.1086 21.6735 17.3496 20.3312 18.6919C20.2083 18.8148 20.0869 18.9377 19.9659 19.0601L19.9658 19.0601C19.7252 19.3035 19.4865 19.5451 19.2422 19.781C18.1784 20.87 17.1654 21.8831 16.0636 22.8709C16.0547 22.8798 16.0457 22.8872 16.0373 22.8941C16.022 22.9067 16.0085 22.9178 16.0003 22.9342C14.9113 24.0232 15.1139 25.087 15.3418 25.8088L15.3798 25.9227C16.2789 28.1008 17.5453 30.1523 19.4701 32.5964L19.4828 32.609C22.9779 36.9146 26.6629 40.2704 30.7279 42.8411C31.2471 43.1703 31.7789 43.4362 32.2855 43.6895L32.2856 43.6896C32.7415 43.9175 33.172 44.1328 33.5391 44.3607C33.5645 44.3733 33.5898 44.3892 33.6151 44.405C33.6405 44.4208 33.6658 44.4366 33.6911 44.4493C34.1217 44.6646 34.5269 44.7659 34.9448 44.7659C35.9958 44.7659 36.6544 44.1074 36.8696 43.8921L41.2005 39.5612C41.6311 39.1307 42.3149 38.6115 43.1127 38.6115C43.8978 38.6115 44.5437 39.1053 44.9362 39.5359L44.9615 39.5612L51.9391 46.5388C53.2434 47.8304 53.2434 49.1601 51.9518 50.5024C51.5463 50.939 51.1323 51.3415 50.6958 51.7659ZM32.4248 14.2724C35.7426 14.8296 38.7565 16.3999 41.1625 18.8059C43.5686 21.212 45.1262 24.2258 45.696 27.5437C45.8353 28.3794 46.5571 28.962 47.3803 28.962C47.4713 28.962 47.5522 28.9517 47.6412 28.9405L47.6715 28.9366C48.6086 28.7847 49.2291 27.8982 49.0771 26.9611C48.3933 22.9468 46.4938 19.2871 43.5939 16.3872C40.694 13.4873 37.0342 11.5878 33.0199 10.9039C32.0829 10.752 31.2091 11.3725 31.0445 12.2969C30.8798 13.2213 31.4877 14.1204 32.4248 14.2724Z" fill="#5390A5"/>
</svg>
