<svg width="180" height="180" viewBox="0 0 180 180" fill="none" xmlns="http://www.w3.org/2000/svg">
<g filter="url(#filter0_bd_1_94)">
<path d="M45 70C45 36.8629 71.8629 10 105 10C138.137 10 165 36.8629 165 70C165 103.137 138.137 130 105 130H45V70Z" fill="white" fill-opacity="0.8" shape-rendering="crispEdges"/>
<path d="M45.25 70C45.25 37.001 72.001 10.25 105 10.25C137.999 10.25 164.75 37.001 164.75 70C164.75 102.999 137.999 129.75 105 129.75H45.25V70Z" stroke="url(#paint0_linear_1_94)" stroke-width="0.5" shape-rendering="crispEdges"/>
</g>
<circle cx="105" cy="70" r="36" fill="#5390A5"/>
<path d="M124.569 52.4088C124.564 52.3937 124.553 52.3736 124.548 52.3586C124.543 52.3435 124.533 52.3284 124.528 52.3184C124.343 51.9066 124.091 51.545 123.775 51.2286C123.629 51.0829 123.458 50.9373 123.262 50.8067C123.257 50.8017 123.252 50.8017 123.247 50.7967C123.207 50.7716 123.167 50.7414 123.127 50.7163C121.339 49.5813 118.41 49.7972 114.753 51.3491C110.82 53.0215 106.6 55.9997 102.858 59.7412L102.642 59.9572L94.9009 60.4745L85 70.3732L94.273 72.8542C94.0872 73.3363 93.9365 73.7532 93.8209 74.0947L93.5999 74.7425L96.1467 77.2888L95.9307 77.5048C95.132 76.8268 94.3886 76.4099 93.6501 76.204C92.7158 75.9428 91.3243 75.9177 89.963 77.2788C88.6369 78.6096 87.6372 80.729 86.9993 83.5816C86.5371 85.6407 86.4417 87.3232 86.4367 87.3935L86.3714 88.6239L87.6021 88.5586C87.6724 88.5536 89.3552 88.4582 91.4148 87.9961C94.268 87.3583 96.3878 86.3639 97.719 85.033C99.0753 83.672 99.0552 82.2758 98.794 81.3467C98.588 80.6085 98.1661 79.8702 97.4879 79.0717L97.7039 78.8557L100.251 81.397L100.899 81.176C101.235 81.0605 101.652 80.9148 102.129 80.729L104.611 90L114.512 80.1012L115.029 72.362C115.105 72.2867 115.18 72.2164 115.25 72.141C118.993 68.3995 121.972 64.1758 123.644 60.2485C125.056 56.9338 125.367 54.2218 124.569 52.4088ZM89.2698 69.2332L95.8755 62.624L100.517 62.3176C97.9551 65.4063 96.2422 68.4598 95.1521 70.8102L89.2698 69.2332ZM96.1568 83.4611C95.1471 84.4706 93.3538 85.2892 90.9677 85.8265C90.1439 86.0124 89.3803 86.1329 88.7775 86.2133C88.8579 85.6106 88.9785 84.8472 89.1643 84.0236C89.7018 81.638 90.5206 79.8451 91.5303 78.8356C91.9723 78.3887 92.3441 78.2631 92.6605 78.2631C92.8062 78.2631 92.9368 78.2882 93.0574 78.3234C93.4391 78.4288 93.8762 78.6799 94.3634 79.0717L93.831 79.604C93.399 80.0359 93.399 80.734 93.831 81.1659C94.047 81.3819 94.3333 81.4874 94.6146 81.4874C94.8959 81.4874 95.1772 81.3769 95.3932 81.1659L95.9257 80.6336C96.3125 81.1207 96.5636 81.5526 96.6691 81.9343C96.7746 82.3261 96.8048 82.8132 96.1568 83.4611ZM112.367 79.1219L105.761 85.7261L104.184 79.8451C106.535 78.7553 109.589 77.0427 112.673 74.4864L112.367 79.1219ZM113.698 70.5791C111.618 72.6583 109.232 74.5065 106.605 76.0734C105.088 76.9774 103.702 77.6655 102.526 78.1777C102.466 78.1978 102.406 78.2229 102.345 78.2531C101.793 78.4891 101.286 78.69 100.838 78.8557L99.2712 77.2888L106.746 69.8158C107.178 69.3838 107.178 68.6858 106.746 68.2539C106.314 67.8219 105.616 67.8219 105.184 68.2539L97.709 75.7269L96.1417 74.16C96.3075 73.708 96.5084 73.1957 96.7495 72.6382C96.7796 72.583 96.8048 72.5227 96.8299 72.4574C97.3423 71.2822 98.0304 69.9011 98.9346 68.3945C100.502 65.7679 102.35 63.3823 104.43 61.3081C107.866 57.873 111.699 55.1308 115.275 53.5388C115.793 55.1057 116.662 56.527 117.832 57.6922C118.832 58.6916 120.033 59.4851 121.344 60.0174C119.736 63.5129 117.044 67.2343 113.698 70.5791ZM121.916 57.8579C120.977 57.4461 120.128 56.8635 119.39 56.1252C118.5 55.2413 117.827 54.1615 117.415 52.9763C119.314 52.2581 120.851 52.0874 121.75 52.4791C121.926 52.5595 122.082 52.6649 122.213 52.7955C122.338 52.9211 122.439 53.0717 122.519 53.2375C122.941 54.1766 122.73 55.8189 121.916 57.8579Z" fill="white"/>
<path d="M110.609 60.364C109.534 60.364 108.524 60.7859 107.766 61.5442C106.199 63.1112 106.199 65.6675 107.766 67.2344C108.549 68.0179 109.579 68.4096 110.609 68.4096C111.639 68.4096 112.669 68.0179 113.452 67.2344C115.019 65.6675 115.019 63.1112 113.452 61.5442C112.694 60.7809 111.684 60.364 110.609 60.364ZM111.895 65.6775C111.187 66.3856 110.036 66.3856 109.328 65.6775C108.62 64.9694 108.62 63.8193 109.328 63.1112C109.67 62.7696 110.127 62.5788 110.609 62.5788C111.091 62.5788 111.548 62.7646 111.895 63.1112C112.603 63.8193 112.603 64.9694 111.895 65.6775Z" fill="white"/>
<defs>
<filter id="filter0_bd_1_94" x="-85" y="-120" width="380" height="380" filterUnits="userSpaceOnUse" color-interpolation-filters="sRGB">
<feFlood flood-opacity="0" result="BackgroundImageFix"/>
<feGaussianBlur in="BackgroundImageFix" stdDeviation="65"/>
<feComposite in2="SourceAlpha" operator="in" result="effect1_backgroundBlur_1_94"/>
<feColorMatrix in="SourceAlpha" type="matrix" values="0 0 0 0 0 0 0 0 0 0 0 0 0 0 0 0 0 0 127 0" result="hardAlpha"/>
<feOffset dx="-15" dy="20"/>
<feGaussianBlur stdDeviation="15"/>
<feComposite in2="hardAlpha" operator="out"/>
<feColorMatrix type="matrix" values="0 0 0 0 0 0 0 0 0 0 0 0 0 0 0 0 0 0 0.15 0"/>
<feBlend mode="normal" in2="effect1_backgroundBlur_1_94" result="effect2_dropShadow_1_94"/>
<feBlend mode="normal" in="SourceGraphic" in2="effect2_dropShadow_1_94" result="shape"/>
</filter>
<linearGradient id="paint0_linear_1_94" x1="78.75" y1="28" x2="208.5" y2="237.25" gradientUnits="userSpaceOnUse">
<stop stop-color="white"/>
<stop offset="1" stop-opacity="0"/>
</linearGradient>
</defs>
</svg>
