<svg width="{80}" height="{80}" viewBox="0 0 80 80" fill="none" xmlns="http://www.w3.org/2000/svg">
  <rect width="{80}" height="{80}" rx="{16}" fill="#5390A5" fillopacity="0.1" />
  <path fillrule="evenodd" cliprule="evenodd" d="M58.4864 24.2742C59.8394 22.0505 62.6793 21.4427 64.8009 22.742C66.9629 24.0661 67.648 26.9078 66.3282 29.0768L62.7378 34.9772L53.0475 50.902V65.8479C53.0475 66.4841 52.5332 67 51.8991 67H15.1485C14.5142 67 14 66.4841 14 65.8479V15.1535C14 14.5172 14.5142 14.0014 15.1485 14.0014C28.1861 14.005 35.3222 14.0023 39.236 14.0008C43.9387 13.999 43.9889 13.999 44.0343 14.0138L44.0358 14.0143C44.0406 14.0158 44.0459 14.0176 44.0569 14.0195C44.247 14.0528 44.414 14.128 44.5625 14.2435C44.5656 14.2459 44.5685 14.248 44.5718 14.2503C44.5847 14.2596 44.6027 14.2726 44.655 14.3233C44.6931 14.3592 52.6827 22.3742 52.7273 22.4217C52.9281 22.6315 53.0475 22.9174 53.0475 23.2185V33.2121L56.6909 27.2247L56.6911 27.2244C56.6816 27.2401 57.5355 25.8368 58.069 24.9601L58.4864 24.2742ZM57.4546 30.3919L61.3757 32.7932L61.9741 31.8098L58.0531 29.4085L57.4546 30.3919ZM44.8883 51.0432L48.8093 53.4445L60.179 34.7599L56.2579 32.3586L44.8883 51.0432ZM43.9368 53.16L44.2559 56.5051L47.3675 55.2612L43.9368 53.16ZM49.1264 22.0664L45.0084 17.9351V22.0664H49.1264ZM16.2969 64.6958H50.7506V54.6764L49.5731 56.6116C49.4437 56.8245 49.2489 56.9893 49.0181 57.0817L43.9588 59.1044C43.0985 60.0066 41.2761 60.5806 39.6993 60.7621C39.318 60.8061 38.8714 60.8375 38.3756 60.8375C36.2103 60.8375 33.1057 60.236 30.4014 57.4318C29.5558 56.5549 28.598 56.15 27.4859 56.15C24.1575 56.15 20.5936 59.7099 20.5579 59.7461C20.1112 60.1972 19.3843 60.2006 18.9342 59.7528C18.484 59.3052 18.4801 58.5769 18.9257 58.1248C19.0984 57.9496 23.1942 53.8457 27.4872 53.8457C29.2752 53.8457 30.8039 54.5353 32.0522 55.8296C34.2777 58.1372 36.8385 58.5747 38.5983 58.5308C40.2773 58.4913 41.5319 58.0168 42.0619 57.6934L41.5683 52.5193C41.5445 52.2711 41.6017 52.022 41.7312 51.8092L50.7506 36.987V24.3708H43.8599C43.2257 24.3708 42.7114 23.855 42.7114 23.2186V16.3058H16.2969V64.6958ZM63.1708 29.8431L64.3677 27.8762C65.0276 26.7918 64.685 25.3709 63.604 24.7088C62.5364 24.0552 61.1193 24.3693 60.4467 25.475L59.2499 27.4418L63.1708 29.8431ZM38.838 22.0665H19.3143C18.68 22.0665 18.1659 21.5507 18.1659 20.9144C18.1659 20.278 18.68 19.7622 19.3143 19.7622H38.838C39.4723 19.7622 39.9865 20.278 39.9865 20.9144C39.9865 21.5507 39.4723 22.0665 38.838 22.0665ZM19.3143 28.9794H38.838C39.4723 28.9794 39.9865 28.4636 39.9865 27.8272C39.9865 27.1909 39.4723 26.6751 38.838 26.6751H19.3143C18.68 26.6751 18.1659 27.1909 18.1659 27.8272C18.1659 28.4636 18.68 28.9794 19.3143 28.9794ZM38.838 49.718H19.3143C18.68 49.718 18.1659 49.202 18.1659 48.5658C18.1659 47.9296 18.68 47.4137 19.3143 47.4137H38.838C39.4723 47.4137 39.9865 47.9296 39.9865 48.5658C39.9865 49.202 39.4723 49.718 38.838 49.718ZM19.3143 35.8922H43.4319C44.0661 35.8922 44.5804 35.3764 44.5804 34.7401C44.5804 34.1038 44.0661 33.5879 43.4319 33.5879H19.3143C18.68 33.5879 18.1659 34.1038 18.1659 34.7401C18.1659 35.3764 18.68 35.8922 19.3143 35.8922ZM43.4319 42.8051H19.3143C18.68 42.8051 18.1659 42.2892 18.1659 41.653C18.1659 41.0167 18.68 40.5008 19.3143 40.5008H43.4319C44.0661 40.5008 44.5804 41.0167 44.5804 41.653C44.5804 42.2892 44.0661 42.8051 43.4319 42.8051Z" fill="#5390A5" />
</svg>
