<svg width="20" height="20" viewBox="0 0 20 20" fill="none" xmlns="http://www.w3.org/2000/svg">
<path d="M18.4853 15.4727L12.9831 9.97056L18.4853 4.46839C19.309 3.64462 19.309 2.30905 18.4853 1.48528C17.6615 0.661513 16.3259 0.661513 15.5022 1.48528L10 6.98746L4.49783 1.48528C3.67406 0.661513 2.33849 0.661513 1.51472 1.48528C0.69095 2.30905 0.69095 3.64462 1.51472 4.46839L7.01689 9.97056L1.51472 15.4727C0.690951 16.2965 0.69095 17.6321 1.51472 18.4558C2.33849 19.2796 3.67406 19.2796 4.49783 18.4558L10 12.9537L15.5022 18.4558C16.3259 19.2796 17.6615 19.2796 18.4853 18.4558C19.309 17.6321 19.309 16.2965 18.4853 15.4727Z" fill="#5390A5"/>
</svg>
