<svg width="{80}" height="{80}" viewBox="0 0 80 80" fill="none" xmlns="http://www.w3.org/2000/svg">
  <rect width="{80}" height="{80}" rx="{16}" fill="#5390A5" fillopacity="0.1" />
  <path fillrule="evenodd" cliprule="evenodd" d="M58.8542 13.3334H65.1042C65.9671 13.3334 66.6667 14.033 66.6667 14.8959V21.1459C66.6667 22.0088 65.9671 22.7084 65.1042 22.7084H58.8542C57.9913 22.7084 57.2917 22.0088 57.2917 21.1459V19.5834H50.7941C56.4201 23.1466 59.857 29.1513 60.27 35.5669C62.1107 36.1998 63.4375 37.9473 63.4375 40C63.4375 42.5847 61.3347 44.6875 58.75 44.6875C56.1654 44.6875 54.0625 42.5847 54.0625 40C54.0625 37.9813 55.3454 36.2565 57.1386 35.5981C56.5838 28.239 51.2847 21.9008 44.1984 20.1024C43.4302 21.6452 41.8374 22.7084 40 22.7084C38.1626 22.7084 36.5698 21.6452 35.8017 20.1023C28.7155 21.9007 23.4163 28.2389 22.8615 35.598C24.6547 36.2565 25.9375 37.9813 25.9375 40C25.9375 42.5847 23.8347 44.6875 21.25 44.6875C18.6654 44.6875 16.5625 42.5847 16.5625 40C16.5625 37.9473 17.8894 36.1998 19.73 35.5669C20.1422 29.1641 23.5689 23.1327 29.206 19.5625H22.7084V21.1459C22.7084 22.0088 22.0088 22.7084 21.1459 22.7084H14.8959C14.033 22.7084 13.3334 22.0088 13.3334 21.1459V14.8959C13.3334 14.033 14.033 13.3334 14.8959 13.3334H21.1459C22.0088 13.3334 22.7084 14.033 22.7084 14.8959V16.4584H35.5813C36.2263 14.6398 37.9631 13.3334 40 13.3334C42.037 13.3334 43.7738 14.6398 44.4188 16.4584H57.2917V14.8959C57.2917 14.033 57.9913 13.3334 58.8542 13.3334ZM16.4584 19.5834H19.5834V16.4584H16.4584V19.5834ZM19.6875 40C19.6875 40.8616 20.3885 41.5625 21.25 41.5625C22.1116 41.5625 22.8125 40.8616 22.8125 40C22.8125 39.1385 22.1116 38.4375 21.25 38.4375C20.3885 38.4375 19.6875 39.1385 19.6875 40ZM38.4375 18.0209C38.4375 18.8824 39.1385 19.5834 40 19.5834C40.8616 19.5834 41.5625 18.8824 41.5625 18.0209C41.5625 17.1593 40.8616 16.4584 40 16.4584C39.1385 16.4584 38.4375 17.1593 38.4375 18.0209ZM60.3125 40C60.3125 39.1385 59.6116 38.4375 58.75 38.4375C57.8885 38.4375 57.1875 39.1385 57.1875 40C57.1875 40.8616 57.8885 41.5625 58.75 41.5625C59.6116 41.5625 60.3125 40.8616 60.3125 40ZM60.4167 19.5834H63.5417V16.4584H60.4167V19.5834ZM41.3 26.6334L53.8 45.3833C54.2133 46.003 54.1315 46.8283 53.6047 47.3549C50.4873 50.472 48.5032 54.547 47.9627 58.907C48.2054 59.1032 48.4396 59.3132 48.6618 59.5405C50.1293 61.0418 50.9375 63.0178 50.9375 65.1042C50.9375 65.9671 50.2379 66.6667 49.375 66.6667H30.625C29.7621 66.6667 29.0625 65.9671 29.0625 65.1042C29.0625 63.0178 29.8708 61.0418 31.3384 59.5406C31.5604 59.3133 31.7947 59.1033 32.0373 58.9071C31.4968 54.5473 29.5126 50.4723 26.3952 47.3549C25.8686 46.8283 25.7868 46.0031 26.2 45.3834L38.7 26.6334L38.7014 26.6314C38.704 26.6275 38.7067 26.6238 38.7095 26.62C38.7114 26.6173 38.7134 26.6146 38.7153 26.6118C39.3049 25.7585 40.5587 25.7033 41.2171 26.5214C41.2407 26.5507 41.2633 26.5807 41.2847 26.6118C41.2866 26.6146 41.2886 26.6173 41.2906 26.62C41.2933 26.6238 41.2961 26.6275 41.2987 26.6314L41.3 26.6334ZM41.5625 46.25C41.5625 45.3885 40.8616 44.6875 40 44.6875C39.1385 44.6875 38.4375 45.3885 38.4375 46.25C38.4375 47.1116 39.1385 47.8125 40 47.8125C40.8616 47.8125 41.5625 47.1116 41.5625 46.25ZM36.875 60.3125C34.8664 60.3125 33.1041 61.6841 32.454 63.5417H47.5461C46.896 61.6841 45.1337 60.3125 43.125 60.3125H36.875ZM43.125 57.1875C43.7739 57.1875 44.411 57.2685 45.0255 57.4254C45.7567 53.2139 47.6559 49.2771 50.51 46.0818L41.5625 32.6607V41.8314C43.3812 42.4764 44.6875 44.2132 44.6875 46.2502C44.6875 48.8348 42.5847 50.9377 40 50.9377C37.4153 50.9377 35.3125 48.8348 35.3125 46.2502C35.3125 44.2132 36.6189 42.4764 38.4375 41.8314V32.6607L29.4901 46.0818C32.3442 49.2774 34.2433 53.2141 34.9745 57.4255C35.5891 57.2685 36.2262 57.1875 36.875 57.1875H43.125Z" fill="#5390A5" />
</svg>
