<svg width="80" height="80" viewBox="0 0 80 80" fill="none" xmlns="http://www.w3.org/2000/svg">
<rect width="80" height="80" rx="16" fill="#5390A5" fill-opacity="0.1"/>
<path d="M15.0352 49.3347H65.9648M55.571 19.1927H62.8467C64.569 19.1927 65.9648 20.5886 65.9648 22.3108V51.4134C65.9648 53.1357 64.5689 54.5315 62.8467 54.5315H18.1533C16.4311 54.5316 15.0352 53.1357 15.0352 51.4135V22.3109C15.0352 20.5886 16.4311 19.1928 18.1533 19.1928H25.429M19.1927 49.3347V23.3502H25.429M55.571 23.3502H61.8073V49.3347M33.744 60.7679L36.8621 54.5316M44.1379 54.5316L47.256 60.7679M25.429 49.3347V18.1533C25.429 16.4312 26.825 15.0352 28.5471 15.0352H52.4529C54.175 15.0352 55.571 16.4312 55.571 18.1533V49.3346M33.744 43.0984H47.2559M54.5317 65.9648H26.4684V65.9437C26.4684 63.0852 28.7857 60.7679 31.6442 60.7679H49.3559C52.2144 60.7679 54.5317 63.0852 54.5317 65.9437V65.9648ZM47.7386 29.0668L40.5 36.8622L33.2615 29.0668L40.5 21.2715L47.7386 29.0668Z" stroke="#5390A5" stroke-width="2.07031" stroke-miterlimit="10" stroke-linecap="round" stroke-linejoin="round"/>
</svg>
