<svg width="80" height="80" viewBox="0 0 80 80" fill="none" xmlns="http://www.w3.org/2000/svg">
<rect width="80" height="80" rx="16" fill="#5390A5" fill-opacity="0.1"/>
<path fill-rule="evenodd" clip-rule="evenodd" d="M21.7986 48.9728C21.8028 48.9364 21.8086 48.9001 21.8159 48.8638C22.628 44.8438 24.5702 42.5173 26.2864 40.4614L26.2983 40.4472L26.3085 40.4349C27.9492 38.47 29.4109 36.7195 29.9479 33.6422C28.7398 34.2145 27.4193 34.51 26.0825 34.5071H24.2093C24.1194 34.5068 24.0304 34.5243 23.9474 34.5587C23.8643 34.5932 23.789 34.6438 23.7258 34.7077C22.9665 35.4676 21.9364 35.8948 20.8621 35.8952C19.7879 35.8956 18.7575 35.4693 17.9975 34.71C17.2376 33.9506 16.8105 32.9205 16.8101 31.8463C16.8096 30.772 17.236 29.7416 17.9953 28.9817L19.0698 27.9072C19.946 27.0329 20.6417 25.9948 21.1175 24.8521C22.3111 21.9976 24.3409 20.2113 25.5999 19.3195V15.3458C25.5999 14.9896 25.7414 14.6479 25.9932 14.3961C26.2451 14.1442 26.5867 14.0027 26.9429 14.0027C27.1784 14.0027 32.4702 14.0537 34.6648 18.2665C35.2578 18.4121 35.8374 18.6077 36.3974 18.8512C38.2535 19.7144 39.6638 20.9867 40.595 22.636C40.7698 22.9463 40.8143 23.3133 40.7186 23.6564C40.6229 23.9994 40.3948 24.2904 40.0846 24.4653C39.7743 24.6402 39.4073 24.6846 39.0643 24.5889C38.7212 24.4932 38.4303 24.2652 38.2553 23.955C37.6071 22.8053 36.6015 21.9054 35.2674 21.2822C35.0615 21.1855 34.5466 20.9841 33.4184 20.7199C33.2089 20.6706 33.0143 20.5717 32.8509 20.4314C32.6876 20.2912 32.5604 20.1137 32.48 19.9141C31.6626 17.8958 29.6533 17.1383 28.2941 16.8536V20.0367C28.2942 20.2664 28.2354 20.4923 28.1233 20.6928C28.0113 20.8933 27.8496 21.0617 27.6539 21.1819C25.8989 22.2564 24.3857 24.0149 23.604 25.8845C22.9933 27.35 22.1007 28.6812 20.977 29.8028L19.9025 30.8772C19.7717 31.0027 19.6672 31.153 19.5951 31.3193C19.5231 31.4857 19.485 31.6647 19.483 31.8459C19.481 32.0272 19.5152 32.207 19.5836 32.3749C19.652 32.5428 19.7531 32.6953 19.8812 32.8236C20.0092 32.9519 20.1616 33.0533 20.3293 33.122C20.4971 33.1907 20.6768 33.2252 20.8581 33.2236C21.0393 33.2219 21.2185 33.1841 21.3849 33.1124C21.5514 33.0407 21.7019 32.9365 21.8276 32.8059C22.1398 32.4925 22.511 32.244 22.9198 32.075C23.3287 31.9059 23.7669 31.8196 24.2093 31.821H26.0816C26.9134 31.8228 27.7374 31.6596 28.5059 31.341C29.2743 31.0224 29.972 30.5547 30.5585 29.9648C30.7464 29.7769 30.9857 29.6489 31.2464 29.597C31.507 29.5451 31.7771 29.5717 32.0226 29.6734C32.2681 29.7751 32.4779 29.9474 32.6255 30.1683C32.7731 30.3893 32.8518 30.6491 32.8516 30.9148C32.8516 36.7962 30.5678 39.5281 28.359 42.1702L28.3586 42.1708L28.3572 42.1725C26.7124 44.1398 25.1582 45.9988 24.469 49.2973C24.4648 49.3302 24.4595 49.363 24.4529 49.3957C24.2945 50.2195 24.1896 51.0521 24.1385 51.8885H34.9692C35.3254 51.8885 35.6671 52.03 35.9189 52.2819C36.1708 52.5337 36.3123 52.8754 36.3123 53.2316C36.3123 53.5878 36.1708 53.9294 35.9189 54.1813C35.6671 54.4332 35.3254 54.5747 34.9692 54.5747H22.7597C22.4744 54.5763 22.2014 54.6907 22.0002 54.8928C21.7989 55.0949 21.6857 55.3684 21.6852 55.6536V57.0227C21.6857 57.3079 21.7989 57.5814 22.0002 57.7835C22.2014 57.9856 22.4744 58.0999 22.7597 58.1016H31.1038C31.46 58.1016 31.8017 58.2431 32.0535 58.495C32.3054 58.7469 32.4469 59.0885 32.4469 59.4447C32.4469 59.8009 32.3054 60.1425 32.0535 60.3944C31.8017 60.6463 31.46 60.7878 31.1038 60.7878H22.7597C21.7623 60.7852 20.8066 60.3875 20.1018 59.6819C19.397 58.9762 19.0005 58.02 18.999 57.0227V55.6536C19.0002 54.6554 19.3973 53.6984 20.1031 52.9926C20.4847 52.611 20.9397 52.3197 21.4349 52.1323C21.4792 51.0722 21.6007 50.0162 21.7986 48.9728ZM35.5582 65.8962C36.2641 66.6021 37.2212 66.9991 38.2195 67H60.418C61.4163 66.9991 62.3734 66.6021 63.0793 65.8962C63.7852 65.1903 64.1822 64.2332 64.1832 63.2349V61.8667C64.1822 60.8684 63.7852 59.9113 63.0793 59.2054C62.4477 58.5738 61.6149 58.1895 60.7315 58.1149C60.5175 54.7751 59.3719 51.5535 57.414 48.8209L57.2994 48.6588C55.7546 46.4848 54.2894 44.4218 54.0772 39.1909H55.3806C56.433 39.1752 57.437 38.7461 58.1757 37.9963C58.9144 37.2465 59.3284 36.2362 59.3284 35.1836C59.3284 34.1311 58.9144 33.1208 58.1757 32.3709C57.437 31.6211 56.433 31.192 55.3806 31.1763H54.7419C55.6445 29.9941 56.1419 28.5417 56.1434 27.0378C56.1434 25.688 55.7432 24.3685 54.9933 23.2462C54.2434 22.1239 53.1775 21.2492 51.9305 20.7326C50.6834 20.2161 49.3112 20.0809 47.9873 20.3443C46.6635 20.6076 45.4475 21.2576 44.493 22.212C43.5386 23.1665 42.8886 24.3825 42.6252 25.7064C42.3619 27.0302 42.4971 28.4024 43.0136 29.6495C43.2405 30.1972 43.5364 30.7099 43.8921 31.1763H43.257C42.2045 31.192 41.2005 31.6211 40.4619 32.3709C39.7232 33.1208 39.3091 34.1311 39.3091 35.1836C39.3091 36.2362 39.7232 37.2465 40.4619 37.9963C41.2005 38.7461 42.2045 39.1752 43.257 39.1909H44.5605C44.349 44.4231 42.8863 46.4864 41.3364 48.6606L41.2218 48.8227C39.2648 51.555 38.1198 54.7759 37.906 58.115C37.0226 58.1895 36.1898 58.5738 35.5582 59.2054C34.8523 59.9113 34.4553 60.8684 34.4544 61.8667V63.2349C34.4553 64.2332 34.8523 65.1903 35.5582 65.8962ZM52.7772 36.5048C52.7542 36.5036 52.731 36.503 52.7078 36.503C52.6846 36.503 52.6615 36.5036 52.6385 36.5048H45.9297H43.257C42.9125 36.4958 42.5852 36.3527 42.3448 36.1059C42.1043 35.8591 41.9698 35.5282 41.9698 35.1836C41.9698 34.8391 42.1043 34.5081 42.3448 34.2613C42.5852 34.0146 42.9125 33.8714 43.257 33.8625H49.3188H55.3806C55.725 33.8714 56.0523 34.0146 56.2928 34.2613C56.5332 34.5081 56.6678 34.8391 56.6678 35.1836C56.6678 35.5282 56.5332 35.8591 56.2928 36.1059C56.0523 36.3527 55.725 36.4958 55.3806 36.5048H52.7772ZM51.3899 39.1909C51.6253 45.3097 53.4697 47.9061 55.1093 50.2141L55.223 50.3744C56.8549 52.6498 57.8249 55.3241 58.0375 58.1016H40.6002C40.8131 55.3247 41.783 52.6511 43.4146 50.3762L43.5283 50.2159C45.1681 47.9077 47.0126 45.311 47.2477 39.1909H51.3899ZM59.4251 60.7878H39.2125H38.2195C37.9334 60.788 37.6591 60.9018 37.4568 61.1041C37.2545 61.3063 37.1408 61.5806 37.1406 61.8667V63.2349C37.1408 63.521 37.2545 63.7953 37.4568 63.9976C37.6591 64.1998 37.9334 64.3136 38.2195 64.3138H60.418C60.7041 64.3136 60.9784 64.1998 61.1807 63.9976C61.383 63.7953 61.4967 63.521 61.497 63.2349V61.8667C61.4967 61.5806 61.383 61.3063 61.1807 61.1041C60.9784 60.9018 60.7041 60.788 60.418 60.7878H59.4251ZM49.3219 31.1763C49.8617 31.1759 50.3989 31.0699 50.9025 30.8613C51.6587 30.548 52.3051 30.0176 52.7598 29.337C53.2146 28.6564 53.4573 27.8563 53.4573 27.0378C53.4561 25.9406 53.0197 24.8886 52.2438 24.1127C51.468 23.3369 50.416 22.9005 49.3188 22.8993C48.5003 22.8993 47.7001 23.142 47.0196 23.5968C46.339 24.0515 45.8085 24.6978 45.4953 25.4541C45.1821 26.2103 45.1001 27.0424 45.2598 27.8452C45.4195 28.648 45.8136 29.3854 46.3924 29.9642C46.9712 30.5429 47.7086 30.9371 48.5114 31.0968C48.7775 31.1497 49.0469 31.1761 49.3156 31.1763H49.3219Z" fill="#5390A5"/>
</svg>
