<svg width="{80}" height="{80}" viewBox="0 0 80 80" fill="none" xmlns="http://www.w3.org/2000/svg">
  <rect width="{80}" height="{80}" rx="{16}" fill="#5390A5" fillopacity="0.1" />
  <path fillrule="evenodd" cliprule="evenodd" d="M21.7984 48.9728C21.8027 48.9364 21.8085 48.9001 21.8158 48.8638C22.6279 44.8438 24.5701 42.5173 26.2863 40.4614L26.2981 40.4472L26.3084 40.4349C27.9491 38.47 29.4107 36.7195 29.9478 33.6422C28.7397 34.2145 27.4191 34.51 26.0824 34.5071H24.2092C24.1193 34.5068 24.0303 34.5243 23.9472 34.5587C23.8642 34.5932 23.7889 34.6438 23.7257 34.7077C22.9664 35.4676 21.9363 35.8948 20.862 35.8952C19.7878 35.8956 18.7573 35.4693 17.9974 34.71C17.2375 33.9506 16.8104 32.9205 16.8099 31.8463C16.8095 30.772 17.2359 29.7416 17.9952 28.9817L19.0697 27.9072C19.9458 27.0329 20.6416 25.9948 21.1174 24.8521C22.311 21.9976 24.3408 20.2113 25.5997 19.3195V15.3458C25.5997 14.9896 25.7412 14.6479 25.9931 14.3961C26.245 14.1442 26.5866 14.0027 26.9428 14.0027C27.1783 14.0027 32.4701 14.0537 34.6647 18.2665C35.2577 18.4121 35.8373 18.6077 36.3973 18.8512C38.2534 19.7144 39.6636 20.9867 40.5949 22.636C40.7697 22.9463 40.8142 23.3133 40.7185 23.6564C40.6227 23.9994 40.3947 24.2904 40.0845 24.4653C39.7742 24.6402 39.4072 24.6846 39.0642 24.5889C38.7211 24.4932 38.4301 24.2652 38.2552 23.955C37.6069 22.8053 36.6014 21.9054 35.2673 21.2822C35.0613 21.1855 34.5465 20.9841 33.4183 20.7199C33.2088 20.6706 33.0141 20.5717 32.8508 20.4314C32.6875 20.2912 32.5603 20.1137 32.4799 19.9141C31.6624 17.8958 29.6532 17.1383 28.294 16.8536V20.0367C28.2941 20.2664 28.2353 20.4923 28.1232 20.6928C28.0111 20.8933 27.8495 21.0617 27.6538 21.1819C25.8988 22.2564 24.3856 24.0149 23.6039 25.8845C22.9932 27.35 22.1006 28.6812 20.9768 29.8028L19.9024 30.8772C19.7715 31.0027 19.667 31.153 19.595 31.3193C19.523 31.4857 19.4849 31.6647 19.4829 31.8459C19.4809 32.0272 19.5151 32.207 19.5835 32.3749C19.6518 32.5428 19.753 32.6953 19.8811 32.8236C20.0091 32.9519 20.1615 33.0533 20.3292 33.122C20.497 33.1907 20.6767 33.2252 20.858 33.2236C21.0392 33.2219 21.2183 33.1841 21.3848 33.1124C21.5513 33.0407 21.7018 32.9365 21.8275 32.8059C22.1397 32.4925 22.5109 32.244 22.9197 32.075C23.3285 31.9059 23.7668 31.8196 24.2092 31.821H26.0815C26.9133 31.8228 27.7373 31.6596 28.5057 31.341C29.2742 31.0224 29.9719 30.5547 30.5584 29.9648C30.7463 29.7769 30.9856 29.6489 31.2462 29.597C31.5069 29.5451 31.777 29.5717 32.0225 29.6734C32.268 29.7751 32.4778 29.9474 32.6254 30.1683C32.7729 30.3893 32.8516 30.6491 32.8515 30.9148C32.8515 36.7962 30.5677 39.5281 28.3589 42.1702L28.3584 42.1708L28.357 42.1725C26.7123 44.1398 25.1581 45.9988 24.4688 49.2973C24.4647 49.3302 24.4593 49.363 24.4527 49.3957C24.2944 50.2195 24.1895 51.0521 24.1384 51.8885H34.9691C35.3253 51.8885 35.6669 52.03 35.9188 52.2819C36.1707 52.5337 36.3122 52.8754 36.3122 53.2316C36.3122 53.5878 36.1707 53.9294 35.9188 54.1813C35.6669 54.4332 35.3253 54.5747 34.9691 54.5747H22.7596C22.4743 54.5763 22.2013 54.6907 22 54.8928C21.7988 55.0949 21.6856 55.3684 21.6851 55.6536V57.0227C21.6856 57.3079 21.7988 57.5814 22 57.7835C22.2013 57.9856 22.4743 58.0999 22.7596 58.1016H31.1037C31.4599 58.1016 31.8015 58.2431 32.0534 58.495C32.3053 58.7469 32.4468 59.0885 32.4468 59.4447C32.4468 59.8009 32.3053 60.1425 32.0534 60.3944C31.8015 60.6463 31.4599 60.7878 31.1037 60.7878H22.7596C21.7622 60.7852 20.8065 60.3875 20.1017 59.6819C19.3969 58.9762 19.0003 58.02 18.9989 57.0227V55.6536C19.0001 54.6554 19.3972 53.6984 20.103 52.9926C20.4846 52.611 20.9396 52.3197 21.4348 52.1323C21.4791 51.0722 21.6006 50.0162 21.7984 48.9728ZM35.5581 65.8962C36.264 66.6021 37.2211 66.9991 38.2194 67H60.4179C61.4162 66.9991 62.3733 66.6021 63.0792 65.8962C63.7851 65.1903 64.1821 64.2332 64.183 63.2349V61.8667C64.1821 60.8684 63.7851 59.9113 63.0792 59.2054C62.4476 58.5738 61.6148 58.1895 60.7314 58.1149C60.5174 54.7751 59.3718 51.5535 57.4139 48.8209L57.2993 48.6588C55.7545 46.4848 54.2893 44.4218 54.0771 39.1909H55.3805C56.4329 39.1752 57.4369 38.7461 58.1756 37.9963C58.9143 37.2465 59.3283 36.2362 59.3283 35.1836C59.3283 34.1311 58.9143 33.1208 58.1756 32.3709C57.4369 31.6211 56.4329 31.192 55.3805 31.1763H54.7418C55.6443 29.9941 56.1418 28.5417 56.1433 27.0378C56.1433 25.688 55.7431 24.3685 54.9932 23.2462C54.2433 22.1239 53.1774 21.2492 51.9303 20.7326C50.6833 20.2161 49.3111 20.0809 47.9872 20.3443C46.6634 20.6076 45.4473 21.2576 44.4929 22.212C43.5384 23.1665 42.8884 24.3825 42.6251 25.7064C42.3618 27.0302 42.4969 28.4024 43.0135 29.6495C43.2403 30.1972 43.5363 30.7099 43.892 31.1763H43.2569C42.2044 31.192 41.2004 31.6211 40.4617 32.3709C39.7231 33.1208 39.309 34.1311 39.309 35.1836C39.309 36.2362 39.7231 37.2465 40.4617 37.9963C41.2004 38.7461 42.2044 39.1752 43.2569 39.1909H44.5604C44.3489 44.4231 42.8862 46.4864 41.3362 48.6606L41.2216 48.8227C39.2647 51.555 38.1197 54.7759 37.9059 58.115C37.0225 58.1895 36.1897 58.5738 35.5581 59.2054C34.8522 59.9113 34.4552 60.8684 34.4543 61.8667V63.2349C34.4552 64.2332 34.8522 65.1903 35.5581 65.8962ZM52.7771 36.5048C52.754 36.5036 52.7309 36.503 52.7077 36.503C52.6845 36.503 52.6614 36.5036 52.6383 36.5048H45.9296H43.2569C42.9124 36.4958 42.5851 36.3527 42.3447 36.1059C42.1042 35.8591 41.9697 35.5282 41.9697 35.1836C41.9697 34.8391 42.1042 34.5081 42.3447 34.2613C42.5851 34.0146 42.9124 33.8714 43.2569 33.8625H49.3187H55.3805C55.7249 33.8714 56.0522 34.0146 56.2926 34.2613C56.5331 34.5081 56.6677 34.8391 56.6677 35.1836C56.6677 35.5282 56.5331 35.8591 56.2926 36.1059C56.0522 36.3527 55.7249 36.4958 55.3805 36.5048H52.7771ZM51.3898 39.1909C51.6252 45.3097 53.4695 47.9061 55.1091 50.2141L55.2229 50.3744C56.8548 52.6498 57.8248 55.3241 58.0374 58.1016H40.6001C40.8129 55.3247 41.7828 52.6511 43.4144 50.3762L43.5282 50.2159C45.1679 47.9077 47.0125 45.311 47.2476 39.1909H51.3898ZM59.4249 60.7878H39.2124H38.2194C37.9333 60.788 37.659 60.9018 37.4567 61.1041C37.2544 61.3063 37.1407 61.5806 37.1404 61.8667V63.2349C37.1407 63.521 37.2544 63.7953 37.4567 63.9976C37.659 64.1998 37.9333 64.3136 38.2194 64.3138H60.4179C60.704 64.3136 60.9783 64.1998 61.1806 63.9976C61.3829 63.7953 61.4966 63.521 61.4969 63.2349V61.8667C61.4966 61.5806 61.3829 61.3063 61.1806 61.1041C60.9783 60.9018 60.704 60.788 60.4179 60.7878H59.4249ZM49.3218 31.1763C49.8616 31.1759 50.3988 31.0699 50.9024 30.8613C51.6586 30.548 52.3049 30.0176 52.7597 29.337C53.2144 28.6564 53.4572 27.8563 53.4572 27.0378C53.456 25.9406 53.0196 24.8886 52.2437 24.1127C51.4678 23.3369 50.4159 22.9005 49.3187 22.8993C48.5001 22.8993 47.7 23.142 47.0194 23.5968C46.3389 24.0515 45.8084 24.6978 45.4952 25.4541C45.1819 26.2103 45.1 27.0424 45.2597 27.8452C45.4194 28.648 45.8135 29.3854 46.3923 29.9642C46.9711 30.5429 47.7085 30.9371 48.5113 31.0968C48.7774 31.1497 49.0467 31.1761 49.3155 31.1763H49.3218Z" fill="#5390A5" />
</svg>
