<svg width="80" height="80" viewBox="0 0 80 80" fill="none" xmlns="http://www.w3.org/2000/svg">
<rect width="80" height="80" rx="16" fill="#5390A5" fill-opacity="0.1"/>
<path fill-rule="evenodd" clip-rule="evenodd" d="M58.8543 13.3334H65.1043C65.9672 13.3334 66.6668 14.033 66.6668 14.8959V21.1459C66.6668 22.0088 65.9672 22.7084 65.1043 22.7084H58.8543C57.9914 22.7084 57.2918 22.0088 57.2918 21.1459V19.5834H50.7942C56.4203 23.1466 59.8571 29.1513 60.2702 35.5669C62.1108 36.1998 63.4377 37.9473 63.4377 40C63.4377 42.5847 61.3349 44.6875 58.7502 44.6875C56.1655 44.6875 54.0627 42.5847 54.0627 40C54.0627 37.9813 55.3455 36.2565 57.1387 35.5981C56.5839 28.239 51.2848 21.9008 44.1985 20.1024C43.4304 21.6452 41.8376 22.7084 40.0002 22.7084C38.1628 22.7084 36.57 21.6452 35.8018 20.1023C28.7156 21.9007 23.4164 28.2389 22.8616 35.598C24.6549 36.2565 25.9377 37.9813 25.9377 40C25.9377 42.5847 23.8349 44.6875 21.2502 44.6875C18.6655 44.6875 16.5627 42.5847 16.5627 40C16.5627 37.9473 17.8895 36.1998 19.7302 35.5669C20.1424 29.1641 23.569 23.1327 29.2061 19.5625H22.7085V21.1459C22.7085 22.0088 22.0089 22.7084 21.146 22.7084H14.896C14.0331 22.7084 13.3335 22.0088 13.3335 21.1459V14.8959C13.3335 14.033 14.0331 13.3334 14.896 13.3334H21.146C22.0089 13.3334 22.7085 14.033 22.7085 14.8959V16.4584H35.5814C36.2264 14.6398 37.9632 13.3334 40.0002 13.3334C42.0371 13.3334 43.7739 14.6398 44.4189 16.4584H57.2918V14.8959C57.2918 14.033 57.9914 13.3334 58.8543 13.3334ZM16.4585 19.5834H19.5835V16.4584H16.4585V19.5834ZM19.6877 40C19.6877 40.8616 20.3886 41.5625 21.2502 41.5625C22.1117 41.5625 22.8127 40.8616 22.8127 40C22.8127 39.1385 22.1117 38.4375 21.2502 38.4375C20.3886 38.4375 19.6877 39.1385 19.6877 40ZM38.4377 18.0209C38.4377 18.8824 39.1386 19.5834 40.0002 19.5834C40.8617 19.5834 41.5627 18.8824 41.5627 18.0209C41.5627 17.1593 40.8617 16.4584 40.0002 16.4584C39.1386 16.4584 38.4377 17.1593 38.4377 18.0209ZM60.3127 40C60.3127 39.1385 59.6117 38.4375 58.7502 38.4375C57.8886 38.4375 57.1877 39.1385 57.1877 40C57.1877 40.8616 57.8886 41.5625 58.7502 41.5625C59.6117 41.5625 60.3127 40.8616 60.3127 40ZM60.4168 19.5834H63.5418V16.4584H60.4168V19.5834ZM41.3002 26.6334L53.8002 45.3833C54.2134 46.003 54.1316 46.8283 53.6048 47.3549C50.4874 50.472 48.5033 54.547 47.9629 58.907C48.2056 59.1032 48.4397 59.3132 48.6619 59.5405C50.1294 61.0418 50.9376 63.0178 50.9376 65.1042C50.9376 65.9671 50.2381 66.6667 49.3751 66.6667H30.6252C29.7622 66.6667 29.0627 65.9671 29.0627 65.1042C29.0627 63.0178 29.8709 61.0418 31.3385 59.5406C31.5606 59.3133 31.7948 59.1033 32.0374 58.9071C31.4969 54.5473 29.5128 50.4723 26.3954 47.3549C25.8687 46.8283 25.7869 46.0031 26.2002 45.3834L38.7002 26.6334L38.7015 26.6314C38.7041 26.6275 38.7069 26.6238 38.7096 26.62C38.7116 26.6173 38.7135 26.6146 38.7155 26.6118C39.305 25.7585 40.5588 25.7033 41.2172 26.5214C41.2408 26.5507 41.2634 26.5807 41.2848 26.6118C41.2868 26.6146 41.2887 26.6173 41.2907 26.62C41.2934 26.6238 41.2962 26.6275 41.2988 26.6314L41.3002 26.6334ZM41.5627 46.25C41.5627 45.3885 40.8617 44.6875 40.0002 44.6875C39.1386 44.6875 38.4377 45.3885 38.4377 46.25C38.4377 47.1116 39.1386 47.8125 40.0002 47.8125C40.8617 47.8125 41.5627 47.1116 41.5627 46.25ZM36.8752 60.3125C34.8665 60.3125 33.1042 61.6841 32.4541 63.5417H47.5462C46.8961 61.6841 45.1338 60.3125 43.1252 60.3125H36.8752ZM43.1252 57.1875C43.774 57.1875 44.4111 57.2685 45.0257 57.4254C45.7568 53.2139 47.656 49.2771 50.5102 46.0818L41.5627 32.6607V41.8314C43.3813 42.4764 44.6877 44.2132 44.6877 46.2502C44.6877 48.8348 42.5848 50.9377 40.0002 50.9377C37.4155 50.9377 35.3127 48.8348 35.3127 46.2502C35.3127 44.2132 36.619 42.4764 38.4377 41.8314V32.6607L29.4903 46.0818C32.3443 49.2774 34.2434 53.2141 34.9746 57.4255C35.5892 57.2685 36.2263 57.1875 36.8752 57.1875H43.1252Z" fill="#5390A5"/>
</svg>
