<svg width="80" height="80" viewBox="0 0 80 80" fill="none" xmlns="http://www.w3.org/2000/svg">
<rect width="80" height="80" rx="16" fill="#5390A5" fill-opacity="0.1"/>
<path fill-rule="evenodd" clip-rule="evenodd" d="M19.8032 36.1163C21.0474 36.1163 22.056 37.0931 22.056 38.2981V48.0945C22.056 52.7763 23.0386 55.4896 24.6882 57.0871C26.3377 58.6846 29.1394 59.6363 33.9737 59.6363H46.1166C50.9509 59.6363 53.7526 58.6846 55.4021 57.0871C57.0516 55.4896 58.0343 52.7763 58.0343 48.0945V38.2981C58.0343 37.0931 59.0429 36.1163 60.2871 36.1163C61.5313 36.1163 62.54 37.0931 62.54 38.2981V48.0945C62.54 53.209 61.495 57.3575 58.5881 60.1727C55.6812 62.9879 51.3977 63.9999 46.1166 63.9999H33.9737C28.6926 63.9999 24.409 62.9879 21.5021 60.1727C18.5952 57.3575 17.5503 53.209 17.5503 48.0945V38.2981C17.5503 37.0931 18.5589 36.1163 19.8032 36.1163Z" fill="#5390A5"/>
<path fill-rule="evenodd" clip-rule="evenodd" d="M32.5654 17.9641C32.6809 16.849 33.6499 16 34.807 16H45.3279C46.4863 16 47.4559 16.8508 47.5698 17.9673L49.0567 32.5418C49.5921 37.8128 45.5155 42.1818 40.0562 42.1818C34.5969 42.1818 30.5202 37.8137 31.0556 32.5428L32.5654 17.9641ZM36.8452 20.3636L35.5396 32.9699C35.5396 32.9706 35.5397 32.9693 35.5396 32.9699C35.2651 35.6835 37.2706 37.8182 40.0562 37.8182C42.8421 37.8182 44.848 35.6849 44.5728 32.9709L43.2867 20.3636H36.8452Z" fill="#5390A5"/>
<path fill-rule="evenodd" clip-rule="evenodd" d="M43.5675 16.7177C43.9945 16.2607 44.6013 16 45.2377 16H52.109C55.291 16 58.0173 16.5785 60.0301 18.3791C62.0132 20.1531 62.8785 22.7406 63.3069 25.7371C63.3107 25.7631 63.3139 25.7892 63.3166 25.8154L63.948 31.8203C64.53 37.4855 60.1594 42.1818 54.2717 42.1818C49.4001 42.1818 45.0751 38.4129 44.5737 33.7L44.573 33.6932L42.996 18.3986C42.9328 17.7853 43.1404 17.1747 43.5675 16.7177ZM47.7268 20.3636L49.0557 33.2528C49.0559 33.2538 49.056 33.2548 49.0561 33.2559C49.3223 35.7416 51.71 37.8182 54.2717 37.8182C57.4848 37.8182 59.7824 35.3593 59.4646 32.2545C59.4645 32.2538 59.4647 32.2552 59.4646 32.2545L58.8383 26.2974C58.4548 23.6466 57.7906 22.3161 56.9728 21.5845C56.1808 20.876 54.8294 20.3636 52.109 20.3636H47.7268Z" fill="#5390A5"/>
<path fill-rule="evenodd" clip-rule="evenodd" d="M19.9474 18.3791C21.9601 16.5785 24.6865 16 27.8685 16H34.7397C35.3762 16 35.983 16.2608 36.4101 16.7178C36.8372 17.1749 37.0447 17.7855 36.9814 18.3989L35.4051 33.6869C35.405 33.6879 35.4049 33.6888 35.4048 33.6897C34.9301 38.4147 30.5962 42.1818 25.7283 42.1818C19.8411 42.1818 15.4708 37.4863 16.0519 31.8218C16.0518 31.8224 16.0519 31.8213 16.0519 31.8218L16.66 25.8232C16.6629 25.7944 16.6664 25.7657 16.6705 25.7371C17.0989 22.7406 17.9643 20.1531 19.9474 18.3791ZM21.1397 26.2936L20.5356 32.2524C20.2165 35.3582 22.5144 37.8182 25.7283 37.8182C28.2939 37.8182 30.6727 35.7396 30.9204 33.2658L30.9209 33.2602L32.2503 20.3636H27.8685C25.148 20.3636 23.7966 20.876 23.0046 21.5845C22.1872 22.3158 21.5233 23.6454 21.1397 26.2936Z" fill="#5390A5"/>
<path fill-rule="evenodd" clip-rule="evenodd" d="M34.2369 50.7272C35.7479 49.2639 37.8319 48.7273 40.0569 48.7273C42.2819 48.7273 44.3659 49.2639 45.8769 50.7272C47.3878 52.1905 47.9419 54.2088 47.9419 56.3636V61.8182C47.9419 63.0232 46.9333 64 45.6891 64H34.4247C33.1805 64 32.1719 63.0232 32.1719 61.8182V56.3636C32.1719 54.2088 32.726 52.1905 34.2369 50.7272ZM37.423 53.8128C37.0584 54.1658 36.6776 54.8748 36.6776 56.3636V59.6364H43.4362V56.3636C43.4362 54.8748 43.0554 54.1658 42.6908 53.8128C42.3263 53.4597 41.5942 53.0909 40.0569 53.0909C38.5196 53.0909 37.7875 53.4597 37.423 53.8128Z" fill="#5390A5"/>
</svg>
