<svg width="60" height="60" viewBox="0 0 60 60" fill="none" xmlns="http://www.w3.org/2000/svg">
<path d="M54.7266 8.90625H5.27344C2.37164 8.90625 0 11.2675 0 14.1797V45.8203C0 48.7336 2.37316 51.0938 5.27344 51.0938H54.7266C57.6284 51.0938 60 48.7325 60 45.8203V14.1797C60 11.2668 57.6272 8.90625 54.7266 8.90625ZM53.9168 12.4219C52.2118 14.1325 32.185 34.2246 31.3622 35.0501C30.675 35.7394 29.3254 35.7398 28.6378 35.0501L6.0832 12.4219H53.9168ZM3.51562 45.174V14.826L18.6404 30L3.51562 45.174ZM6.0832 47.5781L21.1223 32.49L26.1479 37.532C28.2074 39.5981 31.7934 39.5973 33.8522 37.532L38.8778 32.4901L53.9168 47.5781H6.0832ZM56.4844 45.174L41.3596 30L56.4844 14.826V45.174Z" fill="#5390A5"/>
</svg>
