<svg width="302" height="548" viewBox="0 0 302 548" fill="none" xmlns="http://www.w3.org/2000/svg">
<path d="M549.726 38.5952L520.664 196.676L448.974 183.5L465.412 95.3629L465.503 94.877L465.058 95.0919L284.935 182.058L253.336 117.543L498.054 0.290555L549.726 38.5952Z" stroke="black" stroke-width="0.5"/>
<path d="M106.593 84.5006L194.013 263.627L129.159 295.116L11.2919 51.6761L49.8517 0.273582L208.709 29.1305L195.465 100.499L106.863 84.1451L106.375 84.0552L106.593 84.5006Z" stroke="#5390A5" stroke-width="0.5"/>
<path d="M0.274039 508.479L29.3365 350.453L101.027 363.628L84.5878 451.766L84.4972 452.252L84.9423 452.037L265.065 365.071L296.664 429.585L51.9468 546.838L0.274039 508.479Z" stroke="black" stroke-width="0.5"/>
</svg>
