<svg width="188" height="257" viewBox="0 0 188 257" fill="none" xmlns="http://www.w3.org/2000/svg">
<path fill-rule="evenodd" clip-rule="evenodd" d="M21.7843 47.3435L-18.6706 39.8665L-19.8932 39.6405L-19.3485 40.7582L20.7284 122.987L21.1649 123.883L21.1665 123.886L20.2672 124.324L-8.56806 138.343L-9.4674 138.78L-9.90271 137.88L-64.8401 24.2603L-46.6657 0L27.0559 13.4099L28.0397 13.5888L28.0398 13.5889L27.8576 14.5721L21.7843 47.3435ZM-20.7921 40.0787L19.829 123.425L-9.00336 137.443L-63.6749 24.3729L-46.2362 1.09454L26.8737 14.3932L20.9832 46.1785L-19.7115 38.6572L-21.6605 38.297L-20.7921 40.0787ZM140.656 85.3058L147.978 45.9935L148.205 44.7728L147.088 45.3132L63.6071 85.6732L63.6064 85.6735L63.6062 85.6732L49.1196 56.0566L48.6802 55.1582L49.5818 54.7257L163.645 0L188 18.0784L174.513 91.5366L174.333 92.5186L174.333 92.5202L173.349 92.3392L141.456 86.4699L140.473 86.2889L140.656 85.3058ZM147.77 43.8725L64.0673 84.3399L50.0212 55.624L163.534 1.16263L186.904 18.5102L173.53 91.3557L141.639 85.4868L149.188 44.9559L149.551 43.0117L147.77 43.8725ZM-29.978 211.006L-22.6556 171.694L-22.4725 170.711L-23.456 170.53L-55.3491 164.661L-56.3326 164.48L-56.5133 165.463L-70 238.896L-45.6454 257L68.4182 202.274L69.3199 201.842L68.8805 200.943L54.3937 171.326L-29.0875 211.687L-30.2053 212.227L-29.978 211.006ZM53.9327 172.66L-29.7701 213.127L-31.5506 213.988L-31.1884 212.044L-23.6391 171.513L-55.5298 165.644L-68.9041 238.465L-45.5334 255.837L67.9788 201.376L53.9327 172.66ZM96.2152 206.271L136.661 213.469L137.893 213.688L137.328 212.572L97.2847 133.431L96.833 132.538L97.7394 132.114L127.467 118.22L182.84 228.499L164.691 251.861L90.9448 238.923L89.9599 238.75L89.9597 238.75L90.1489 237.768L96.2152 206.271ZM138.785 213.237L98.1911 133.007L127.01 119.538L181.663 228.384L164.271 250.771L91.134 237.941L97.0107 207.428L137.718 214.673L139.689 215.024L138.785 213.237Z" fill="white"/>
</svg>
