<svg width="60" height="60" viewBox="0 0 60 60" fill="none" xmlns="http://www.w3.org/2000/svg">
<path fill-rule="evenodd" clip-rule="evenodd" d="M45.7453 30.6634C45.6881 30.7361 45.6412 30.817 40.0167 39.6428C46.0847 40.5754 56.3672 43.3457 56.3672 49.4531C56.3672 56.4291 42.6592 60 30 60C23.2302 60 16.8403 59.0494 12.0073 57.3233C5.0857 54.8514 3.63281 51.6791 3.63281 49.4531C3.63281 43.3467 13.9274 40.5735 19.983 39.6429L14.3191 30.7554C11.9184 27.4325 10.6641 23.4727 10.6641 19.4531C10.6641 8.76937 19.3545 0 30 0C40.6804 0 49.3359 8.78672 49.3359 19.4531C49.3359 23.4752 48.1073 27.3341 45.7828 30.6128C45.7609 30.6439 45.753 30.6536 45.7453 30.6634ZM17.1952 28.7329C17.2162 28.7619 17.2364 28.7914 17.2557 28.8217L30 48.819C42.7431 28.8232 42.8161 28.6967 42.9078 28.5856C42.9143 28.5778 42.9209 28.57 42.9321 28.5552C44.8218 25.8793 45.8203 22.7327 45.8203 19.4531C45.8203 10.6651 38.7233 3.51562 30 3.51562C21.2585 3.51562 14.1797 10.662 14.1797 19.4531C14.1797 22.7275 15.1975 25.9846 17.1952 28.7329ZM7.14844 49.4531C7.14844 52.42 16.1726 56.4844 30 56.4844C43.9086 56.4844 52.8516 52.3948 52.8516 49.4531C52.8516 47.4591 48.2146 44.1803 37.9393 42.9022L31.4822 53.0346C31.1596 53.541 30.6005 53.8477 29.9999 53.8477C29.3993 53.8477 28.8403 53.5411 28.5176 53.0346L22.0603 42.9022C11.7853 44.1803 7.14844 47.4591 7.14844 49.4531ZM21.2109 19.4531C21.2109 14.6068 25.1537 10.6641 30 10.6641C34.8463 10.6641 38.7891 14.6068 38.7891 19.4531C38.7891 24.2994 34.8463 28.2422 30 28.2422C25.1537 28.2422 21.2109 24.2994 21.2109 19.4531ZM24.7266 19.4531C24.7266 22.3609 27.0922 24.7266 30 24.7266C32.9078 24.7266 35.2734 22.3609 35.2734 19.4531C35.2734 16.5454 32.9078 14.1797 30 14.1797C27.0922 14.1797 24.7266 16.5454 24.7266 19.4531Z" fill="#5390A5"/>
</svg>
