<svg width="20" height="18" viewBox="0 0 20 18" fill="none" xmlns="http://www.w3.org/2000/svg">
<path fill-rule="evenodd" clip-rule="evenodd" d="M5 18H15C18 18 20 16.4118 20 12.7059V5.29412C20 1.58824 18 0 15 0H5C2 0 0 1.58824 0 5.29412V12.7059C0 16.4118 2 18 5 18ZM7.65978 9.08468C8.30978 9.64585 9.15978 9.92114 9.99978 9.92114C10.8398 9.92114 11.6898 9.64585 12.3298 9.08468L15.4598 6.43762C15.7898 6.17291 15.8398 5.66467 15.5798 5.32585C15.3298 4.97644 14.8498 4.9235 14.5298 5.1988L11.3998 7.84585C10.6398 8.49174 9.34977 8.49174 8.58977 7.84585L5.45978 5.1988C5.13978 4.9235 4.66978 4.98703 4.40978 5.32585C4.14978 5.66467 4.20978 6.16232 4.52978 6.43762L7.65978 9.08468Z" fill="#3F3434"/>
</svg>
