<svg width="80" height="80" viewBox="0 0 80 80" fill="none" xmlns="http://www.w3.org/2000/svg">
<rect width="80" height="80" rx="16" fill="#5390A5" fill-opacity="0.1"/>
<path fill-rule="evenodd" clip-rule="evenodd" d="M26.0158 21.9064C25.0558 22.8489 24.4444 24.7117 24.4444 29.0909V50.9091C24.4444 55.2883 25.0558 57.1511 26.0158 58.0936C26.9758 59.0361 28.873 59.6364 33.3333 59.6364H46.6667C51.127 59.6364 53.0242 59.0361 53.9842 58.0936C54.9442 57.1511 55.5556 55.2883 55.5556 50.9091V29.0909C55.5556 24.7117 54.9442 22.8489 53.9842 21.9064C53.0242 20.9639 51.127 20.3636 46.6667 20.3636H33.3333C28.873 20.3636 26.9758 20.9639 26.0158 21.9064ZM22.8731 18.8209C25.2464 16.4907 28.9048 16 33.3333 16H46.6667C51.0952 16 54.7536 16.4907 57.1269 18.8209C59.5003 21.1511 60 24.7429 60 29.0909V50.9091C60 55.2571 59.5003 58.8489 57.1269 61.1791C54.7536 63.5093 51.0952 64 46.6667 64H33.3333C28.9048 64 25.2464 63.5093 22.8731 61.1791C20.4997 58.8489 20 55.2571 20 50.9091V29.0909C20 24.7429 20.4997 21.1511 22.8731 18.8209Z" fill="#5390A5"/>
<path fill-rule="evenodd" clip-rule="evenodd" d="M33.3333 25.8182C33.3333 24.6132 34.3282 23.6364 35.5555 23.6364H44.4444C45.6717 23.6364 46.6666 24.6132 46.6666 25.8182C46.6666 27.0232 45.6717 28 44.4444 28H35.5555C34.3282 28 33.3333 27.0232 33.3333 25.8182Z" fill="#5390A5"/>
<path fill-rule="evenodd" clip-rule="evenodd" d="M39.9997 50.909C39.3247 50.909 38.7775 51.4463 38.7775 52.109C38.7775 52.7718 39.3247 53.309 39.9997 53.309C40.6747 53.309 41.2219 52.7718 41.2219 52.109C41.2219 51.4463 40.6747 50.909 39.9997 50.909ZM34.333 52.109C34.333 49.0363 36.8701 46.5454 39.9997 46.5454C43.1293 46.5454 45.6663 49.0363 45.6663 52.109C45.6663 55.1818 43.1293 57.6727 39.9997 57.6727C36.8701 57.6727 34.333 55.1818 34.333 52.109Z" fill="#5390A5"/>
</svg>
