<svg width="40" height="48" viewBox="0 0 40 48" fill="none" xmlns="http://www.w3.org/2000/svg">
<path fill-rule="evenodd" clip-rule="evenodd" d="M6.01579 5.90641C5.05581 6.84894 4.44444 8.71168 4.44444 13.0909V34.9091C4.44444 39.2883 5.05581 41.1511 6.01579 42.0936C6.97578 43.0361 8.87301 43.6364 13.3333 43.6364H26.6667C31.127 43.6364 33.0242 43.0361 33.9842 42.0936C34.9442 41.1511 35.5556 39.2883 35.5556 34.9091V13.0909C35.5556 8.71168 34.9442 6.84894 33.9842 5.90641C33.0242 4.96389 31.127 4.36364 26.6667 4.36364H13.3333C8.87301 4.36364 6.97578 4.96389 6.01579 5.90641ZM2.8731 2.82086C5.24645 0.49066 8.90477 0 13.3333 0H26.6667C31.0952 0 34.7536 0.49066 37.1269 2.82086C39.5003 5.15106 40 8.74287 40 13.0909V34.9091C40 39.2571 39.5003 42.8489 37.1269 45.1791C34.7536 47.5093 31.0952 48 26.6667 48H13.3333C8.90477 48 5.24645 47.5093 2.8731 45.1791C0.499746 42.8489 0 39.2571 0 34.9091V13.0909C0 8.74287 0.499746 5.15106 2.8731 2.82086Z" fill="#5390A5"/>
<path fill-rule="evenodd" clip-rule="evenodd" d="M13.3333 9.81817C13.3333 8.61319 14.3282 7.63635 15.5555 7.63635H24.4444C25.6717 7.63635 26.6666 8.61319 26.6666 9.81817C26.6666 11.0232 25.6717 12 24.4444 12H15.5555C14.3282 12 13.3333 11.0232 13.3333 9.81817Z" fill="#5390A5"/>
<path fill-rule="evenodd" clip-rule="evenodd" d="M19.9997 34.909C19.3247 34.909 18.7775 35.4463 18.7775 36.109C18.7775 36.7718 19.3247 37.309 19.9997 37.309C20.6747 37.309 21.2219 36.7718 21.2219 36.109C21.2219 35.4463 20.6747 34.909 19.9997 34.909ZM14.333 36.109C14.333 33.0363 16.8701 30.5454 19.9997 30.5454C23.1293 30.5454 25.6663 33.0363 25.6663 36.109C25.6663 39.1818 23.1293 41.6727 19.9997 41.6727C16.8701 41.6727 14.333 39.1818 14.333 36.109Z" fill="#5390A5"/>
</svg>
