<svg width="48" height="46" viewBox="0 0 48 46" fill="none" xmlns="http://www.w3.org/2000/svg">
<path fill-rule="evenodd" clip-rule="evenodd" d="M5.56004 5.59813C4.87702 6.28583 4.36363 7.72655 4.36363 11.4451V24.6257C4.36363 28.3442 4.87702 29.785 5.56004 30.4727C6.24307 31.1604 7.67399 31.6773 11.3673 31.6773H19.6363C20.8413 31.6773 21.8182 32.6608 21.8182 33.874C21.8182 35.0873 20.8413 36.0708 19.6363 36.0708H11.3673C7.70781 36.0708 4.54601 35.6651 2.47449 33.5793C0.402975 31.4936 0 28.3102 0 24.6257V11.4451C0 7.7606 0.402975 4.57714 2.47449 2.49144C4.54601 0.405735 7.70781 0 11.3673 0H34.3418C38.0012 0 41.163 0.405735 43.2345 2.49144C45.3061 4.57714 45.709 7.7606 45.709 11.4451C45.709 12.6584 44.7322 13.6419 43.5272 13.6419C42.3222 13.6419 41.3454 12.6584 41.3454 11.4451C41.3454 7.72655 40.832 6.28583 40.149 5.59813C39.466 4.91042 38.035 4.39352 34.3418 4.39352H11.3673C7.67399 4.39352 6.24307 4.91042 5.56004 5.59813Z" fill="#5390A5"/>
<path fill-rule="evenodd" clip-rule="evenodd" d="M19.6364 31.677C20.8414 31.677 21.8182 32.6605 21.8182 33.8738V43.8031C21.8182 45.0163 20.8414 45.9999 19.6364 45.9999C18.4314 45.9999 17.4546 45.0163 17.4546 43.8031V33.8738C17.4546 32.6605 18.4314 31.677 19.6364 31.677Z" fill="#5390A5"/>
<path fill-rule="evenodd" clip-rule="evenodd" d="M0 25.0869C0 23.8737 0.976832 22.8901 2.18182 22.8901H19.6363C20.8413 22.8901 21.8182 23.8737 21.8182 25.0869C21.8182 26.3001 20.8413 27.2837 19.6363 27.2837H2.18182C0.976832 27.2837 0 26.3001 0 25.0869Z" fill="#5390A5"/>
<path fill-rule="evenodd" clip-rule="evenodd" d="M10.3418 43.8033C10.3418 42.5901 11.3186 41.6066 12.5236 41.6066H19.6363C20.8413 41.6066 21.8181 42.5901 21.8181 43.8033C21.8181 45.0166 20.8413 46.0001 19.6363 46.0001H12.5236C11.3186 46.0001 10.3418 45.0166 10.3418 43.8033Z" fill="#5390A5"/>
<path fill-rule="evenodd" clip-rule="evenodd" d="M27.9892 21.1072C27.7154 21.3828 27.3382 22.1366 27.3382 24.7574V37.3009C27.3382 39.9216 27.7154 40.6755 27.9892 40.9511C28.263 41.2267 29.0117 41.6065 31.6146 41.6065H39.36C41.963 41.6065 42.7117 41.2267 42.9854 40.9511C43.2592 40.6755 43.6364 39.9216 43.6364 37.3009V24.7574C43.6364 22.1366 43.2592 21.3828 42.9854 21.1072C42.7117 20.8315 41.963 20.4517 39.36 20.4517H31.6146C29.0117 20.4517 28.263 20.8315 27.9892 21.1072ZM24.9036 18.0005C26.5662 16.3265 29.0466 16.0582 31.6146 16.0582H39.36C41.928 16.0582 44.4084 16.3265 46.071 18.0005C47.7336 19.6745 48 22.1718 48 24.7574V37.3009C48 39.8865 47.7336 42.3838 46.071 44.0578C44.4084 45.7318 41.928 46 39.36 46H31.6146C29.0466 46 26.5662 45.7318 24.9036 44.0578C23.241 42.3838 22.9746 39.8865 22.9746 37.3009V24.7574C22.9746 22.1718 23.241 19.6745 24.9036 18.0005Z" fill="#5390A5"/>
<path fill-rule="evenodd" clip-rule="evenodd" d="M33.261 36.7297C33.261 35.5165 34.2378 34.533 35.4428 34.533H35.4624C36.6674 34.533 37.6442 35.5165 37.6442 36.7297C37.6442 37.943 36.6674 38.9265 35.4624 38.9265H35.4428C34.2378 38.9265 33.261 37.943 33.261 36.7297Z" fill="#5390A5"/>
</svg>
