<svg width="80" height="80" viewBox="0 0 80 80" fill="none" xmlns="http://www.w3.org/2000/svg">
<rect width="80" height="80" rx="16" fill="#5390A5" fill-opacity="0.1"/>
<path fill-rule="evenodd" clip-rule="evenodd" d="M21.56 22.5981C20.877 23.2858 20.3636 24.7265 20.3636 28.4451V41.6257C20.3636 45.3442 20.877 46.785 21.56 47.4727C22.2431 48.1604 23.674 48.6773 27.3673 48.6773H35.6363C36.8413 48.6773 37.8182 49.6608 37.8182 50.874C37.8182 52.0873 36.8413 53.0708 35.6363 53.0708H27.3673C23.7078 53.0708 20.546 52.6651 18.4745 50.5793C16.403 48.4936 16 45.3102 16 41.6257V28.4451C16 24.7606 16.403 21.5771 18.4745 19.4914C20.546 17.4057 23.7078 17 27.3673 17H50.3418C54.0012 17 57.163 17.4057 59.2345 19.4914C61.3061 21.5771 61.709 24.7606 61.709 28.4451C61.709 29.6584 60.7322 30.6419 59.5272 30.6419C58.3222 30.6419 57.3454 29.6584 57.3454 28.4451C57.3454 24.7265 56.832 23.2858 56.149 22.5981C55.466 21.9104 54.035 21.3935 50.3418 21.3935H27.3673C23.674 21.3935 22.2431 21.9104 21.56 22.5981Z" fill="#5390A5"/>
<path fill-rule="evenodd" clip-rule="evenodd" d="M35.6364 48.677C36.8414 48.677 37.8182 49.6605 37.8182 50.8738V60.8031C37.8182 62.0163 36.8414 62.9999 35.6364 62.9999C34.4314 62.9999 33.4546 62.0163 33.4546 60.8031V50.8738C33.4546 49.6605 34.4314 48.677 35.6364 48.677Z" fill="#5390A5"/>
<path fill-rule="evenodd" clip-rule="evenodd" d="M16 42.0869C16 40.8737 16.9768 39.8901 18.1818 39.8901H35.6363C36.8413 39.8901 37.8182 40.8737 37.8182 42.0869C37.8182 43.3001 36.8413 44.2837 35.6363 44.2837H18.1818C16.9768 44.2837 16 43.3001 16 42.0869Z" fill="#5390A5"/>
<path fill-rule="evenodd" clip-rule="evenodd" d="M26.3418 60.8033C26.3418 59.5901 27.3186 58.6066 28.5236 58.6066H35.6363C36.8413 58.6066 37.8181 59.5901 37.8181 60.8033C37.8181 62.0166 36.8413 63.0001 35.6363 63.0001H28.5236C27.3186 63.0001 26.3418 62.0166 26.3418 60.8033Z" fill="#5390A5"/>
<path fill-rule="evenodd" clip-rule="evenodd" d="M43.9892 38.1072C43.7154 38.3828 43.3382 39.1366 43.3382 41.7574V54.3009C43.3382 56.9216 43.7154 57.6755 43.9892 57.9511C44.263 58.2267 45.0117 58.6065 47.6146 58.6065H55.36C57.963 58.6065 58.7117 58.2267 58.9854 57.9511C59.2592 57.6755 59.6364 56.9216 59.6364 54.3009V41.7574C59.6364 39.1366 59.2592 38.3828 58.9854 38.1072C58.7117 37.8315 57.963 37.4517 55.36 37.4517H47.6146C45.0117 37.4517 44.263 37.8315 43.9892 38.1072ZM40.9036 35.0005C42.5662 33.3265 45.0466 33.0582 47.6146 33.0582H55.36C57.928 33.0582 60.4084 33.3265 62.071 35.0005C63.7336 36.6745 64 39.1718 64 41.7574V54.3009C64 56.8865 63.7336 59.3838 62.071 61.0578C60.4084 62.7318 57.928 63 55.36 63H47.6146C45.0466 63 42.5662 62.7318 40.9036 61.0578C39.241 59.3838 38.9746 56.8865 38.9746 54.3009V41.7574C38.9746 39.1718 39.241 36.6745 40.9036 35.0005Z" fill="#5390A5"/>
<path fill-rule="evenodd" clip-rule="evenodd" d="M49.261 53.7297C49.261 52.5165 50.2378 51.533 51.4428 51.533H51.4624C52.6674 51.533 53.6442 52.5165 53.6442 53.7297C53.6442 54.943 52.6674 55.9265 51.4624 55.9265H51.4428C50.2378 55.9265 49.261 54.943 49.261 53.7297Z" fill="#5390A5"/>
</svg>
