<svg width="80" height="80" viewBox="0 0 80 80" fill="none" xmlns="http://www.w3.org/2000/svg">
<rect width="80" height="80" rx="16" fill="#5390A5" fill-opacity="0.1"/>
<path fill-rule="evenodd" clip-rule="evenodd" d="M35.406 41.206C35.9449 42.2838 35.5081 43.5944 34.4303 44.1333C33.3405 44.6781 32.4287 45.4857 31.7404 46.5046C31.7327 46.5172 31.7293 46.5262 31.7277 46.5315C31.7259 46.5376 31.7255 46.5421 31.7255 46.5454C31.7255 46.5487 31.7259 46.5532 31.7277 46.5593C31.7293 46.5646 31.7327 46.5737 31.7404 46.5862C32.4287 47.6051 33.3405 48.4127 34.4303 48.9576C35.5081 49.4965 35.9449 50.807 35.406 51.8848C34.8671 52.9626 33.5566 53.3994 32.4788 52.8605C30.6936 51.9679 29.2089 50.6423 28.1092 49.0061L28.0965 48.9873L28.0966 48.9873C27.1169 47.4963 27.1169 45.5945 28.0966 44.1036L28.1091 44.0846L28.1092 44.0847C29.2089 42.4485 30.6936 41.1229 32.4788 40.2303C33.5566 39.6914 34.8671 40.1283 35.406 41.206Z" fill="#5390A5"/>
<path fill-rule="evenodd" clip-rule="evenodd" d="M45.0521 41.206C45.591 40.1283 46.9016 39.6914 47.9793 40.2303C49.7645 41.1229 51.2492 42.4485 52.3489 44.0847L52.3616 44.1035L52.3615 44.1036C53.3413 45.5945 53.3413 47.4963 52.3615 48.9873L52.349 49.0062L52.3489 49.0061C51.2492 50.6423 49.7645 51.9679 47.9793 52.8605C46.9016 53.3994 45.591 52.9626 45.0521 51.8848C44.5132 50.807 44.9501 49.4965 46.0278 48.9576C47.1176 48.4127 48.0295 47.6052 48.7177 46.5862C48.7254 46.5737 48.7288 46.5646 48.7304 46.5593C48.7322 46.5532 48.7327 46.5487 48.7327 46.5454C48.7327 46.5421 48.7322 46.5376 48.7304 46.5315C48.7288 46.5262 48.7254 46.5172 48.7177 46.5046C48.0295 45.4857 47.1176 44.6781 46.0278 44.1333C44.9501 43.5944 44.5132 42.2838 45.0521 41.206Z" fill="#5390A5"/>
<path fill-rule="evenodd" clip-rule="evenodd" d="M20.1845 20.1845C23.2484 17.1206 27.7848 16 33.4545 16H46.5455C52.2152 16 56.7516 17.1206 59.8155 20.1845C62.8794 23.2484 64 27.7848 64 33.4545V46.5455C64 52.2152 62.8794 56.7516 59.8155 59.8155C56.7516 62.8794 52.2152 64 46.5455 64H33.4545C27.7848 64 23.2484 62.8794 20.1845 59.8155C17.1206 56.7516 16 52.2152 16 46.5455V33.4545C16 27.7848 17.1206 23.2484 20.1845 20.1845ZM23.2701 23.2701C21.4249 25.1152 20.3636 28.2152 20.3636 33.4545V46.5455C20.3636 51.7848 21.4249 54.8848 23.2701 56.7299C25.1152 58.5751 28.2152 59.6364 33.4545 59.6364H46.5455C51.7848 59.6364 54.8848 58.5751 56.7299 56.7299C58.5751 54.8848 59.6364 51.7848 59.6364 46.5455V33.4545C59.6364 28.2152 58.5751 25.1152 56.7299 23.2701C54.8848 21.4249 51.7848 20.3636 46.5455 20.3636H33.4545C28.2152 20.3636 25.1152 21.4249 23.2701 23.2701Z" fill="#5390A5"/>
<path fill-rule="evenodd" clip-rule="evenodd" d="M62.7999 31.2716C62.8005 32.4766 61.8242 33.4539 60.6192 33.4545L18.6847 33.4764C17.4797 33.477 16.5023 32.5007 16.5017 31.2957C16.5011 30.0907 17.4774 29.1134 18.6824 29.1127L60.6169 29.0909C61.8219 29.0903 62.7993 30.0666 62.7999 31.2716Z" fill="#5390A5"/>
</svg>
