<svg width="80" height="80" viewBox="0 0 80 80" fill="none" xmlns="http://www.w3.org/2000/svg">
<rect width="80" height="80" rx="16" fill="#5390A5" fill-opacity="0.1"/>
<path fill-rule="evenodd" clip-rule="evenodd" d="M29.6738 20.3636C28.2877 20.3636 27.1373 20.4074 26.1483 20.5406L26.0999 20.5465C23.365 20.8527 22.222 21.5785 21.5739 22.5609C20.7977 23.7375 20.3617 25.7967 20.3617 29.6582V43.4473C20.3617 47.3088 20.7977 49.368 21.5739 50.5446C22.222 51.527 23.365 52.2528 26.0999 52.559L26.1483 52.565C27.1373 52.6982 28.2877 52.7419 29.6738 52.7419H50.3262C51.7333 52.7419 52.8622 52.6982 53.8517 52.565L53.9001 52.559C56.6349 52.2528 57.778 51.527 58.4261 50.5446C59.2023 49.368 59.6383 47.3088 59.6383 43.4473V29.6582C59.6383 25.7967 59.2023 23.7376 58.4261 22.5609C57.778 21.5785 56.6349 20.8527 53.9001 20.5465L53.8517 20.5406C52.8627 20.4074 51.7123 20.3636 50.3262 20.3636H29.6738ZM25.5907 16.2127C26.8629 16.0431 28.234 16 29.6738 16H50.3262C51.766 16 53.1371 16.0431 54.4092 16.2127C57.7043 16.5851 60.3905 17.6168 62.0664 20.1573C63.6183 22.5098 64 25.7524 64 29.6582V43.4473C64 47.3531 63.6183 50.5957 62.0664 52.9482C60.3905 55.4887 57.7043 56.5204 54.4093 56.8928C53.1378 57.0623 51.7884 57.1055 50.3262 57.1055H29.6738C28.234 57.1055 26.8629 57.0624 25.5907 56.8928C22.2956 56.5204 19.6095 55.4887 17.9336 52.9482C16.3817 50.5957 16 47.3531 16 43.4473V29.6582C16 25.7524 16.3817 22.5098 17.9336 20.1573C19.6095 17.6168 22.2956 16.5851 25.5907 16.2127Z" fill="#5390A5"/>
<path fill-rule="evenodd" clip-rule="evenodd" d="M41.2756 31.9711C41.2756 30.7661 42.252 29.7892 43.4565 29.7892H51.4819C52.6863 29.7892 53.6627 30.7661 53.6627 31.9711C53.6627 33.176 52.6863 34.1529 51.4819 34.1529H43.4565C42.252 34.1529 41.2756 33.176 41.2756 31.9711Z" fill="#5390A5"/>
<path fill-rule="evenodd" clip-rule="evenodd" d="M26.3589 44.6033C26.3589 43.3983 27.3353 42.4215 28.5397 42.4215H51.5038C52.7083 42.4215 53.6847 43.3983 53.6847 44.6033C53.6847 45.8083 52.7083 46.7851 51.5038 46.7851H28.5397C27.3353 46.7851 26.3589 45.8083 26.3589 44.6033Z" fill="#5390A5"/>
<path fill-rule="evenodd" clip-rule="evenodd" d="M26.926 61.8182C26.926 60.6132 27.9024 59.6364 29.1069 59.6364H50.9151C52.1196 59.6364 53.096 60.6132 53.096 61.8182C53.096 63.0232 52.1196 64 50.9151 64H29.1069C27.9024 64 26.926 63.0232 26.926 61.8182Z" fill="#5390A5"/>
<path fill-rule="evenodd" clip-rule="evenodd" d="M27.3506 31.9274C27.3506 30.7224 28.3274 29.7455 29.5324 29.7455H29.552C30.757 29.7455 31.7338 30.7224 31.7338 31.9274C31.7338 33.1323 30.757 34.1092 29.552 34.1092H29.5324C28.3274 34.1092 27.3506 33.1323 27.3506 31.9274Z" fill="#5390A5"/>
<path fill-rule="evenodd" clip-rule="evenodd" d="M34.5471 31.9274C34.5471 30.7224 35.524 29.7455 36.7289 29.7455H36.7485C37.9535 29.7455 38.9304 30.7224 38.9304 31.9274C38.9304 33.1323 37.9535 34.1092 36.7485 34.1092H36.7289C35.524 34.1092 34.5471 33.1323 34.5471 31.9274Z" fill="#5390A5"/>
</svg>
