<svg width="24" height="24" viewBox="0 0 24 24" fill="none" xmlns="http://www.w3.org/2000/svg">
<path d="M19.5 7.42062C18.9422 7.66154 18.3478 7.82123 17.7281 7.89877C18.3656 7.524 18.8522 6.93508 19.0809 6.22523C18.4866 6.57415 17.8303 6.82062 17.1309 6.95815C16.5666 6.36646 15.7622 6 14.8847 6C13.1822 6 11.8116 7.36062 11.8116 9.02862C11.8116 9.26862 11.8322 9.49938 11.8828 9.71908C9.32625 9.59631 7.06406 8.38985 5.54437 6.552C5.27906 7.00523 5.12344 7.524 5.12344 8.08246C5.12344 9.13108 5.67188 10.0606 6.48937 10.5988C5.99531 10.5895 5.51063 10.4483 5.1 10.2258C5.1 10.2351 5.1 10.2471 5.1 10.2591C5.1 11.7305 6.16594 12.9526 7.56375 13.2342C7.31344 13.3015 7.04063 13.3338 6.7575 13.3338C6.56063 13.3338 6.36187 13.3228 6.17531 13.2822C6.57375 14.4812 7.70438 15.3628 9.04875 15.3914C8.0025 16.1972 6.67406 16.6828 5.23594 16.6828C4.98375 16.6828 4.74187 16.6717 4.5 16.6412C5.86219 17.5062 7.47656 18 9.2175 18C14.8763 18 17.97 13.3846 17.97 9.384C17.97 9.25015 17.9653 9.12092 17.9587 8.99262C18.5691 8.56615 19.0819 8.03354 19.5 7.42062Z" fill="#B5B5B5"/>
<rect x="0.5" y="0.5" width="23" height="23" rx="5.5" stroke="#B5B5B5"/>
</svg>
