<svg width="80" height="80" viewBox="0 0 80 80" fill="none" xmlns="http://www.w3.org/2000/svg">
<rect width="80" height="80" rx="16" fill="#5390A5" fill-opacity="0.1"/>
<path fill-rule="evenodd" clip-rule="evenodd" d="M22.3769 19.6972C24.6857 17.2207 28.0824 16 32.3333 16H49.8571C54.1079 16 57.5047 17.2207 59.8135 19.6972C62.0949 22.1444 63 25.4837 63 29.0909V50.9091C63 54.5163 62.0949 57.8556 59.8135 60.3028C57.5047 62.7793 54.1079 64 49.8571 64H38.9047C37.6949 64 36.7142 63.0232 36.7142 61.8182C36.7142 60.6132 37.6949 59.6364 38.9047 59.6364H49.8571C53.2729 59.6364 55.3523 58.6752 56.6031 57.3336C57.8812 55.9626 58.619 53.8474 58.619 50.9091V29.0909C58.619 26.1526 57.8812 24.0374 56.6031 22.6664C55.3523 21.3248 53.2729 20.3636 49.8571 20.3636H32.3333C28.9175 20.3636 26.8381 21.3248 25.5873 22.6664C24.3092 24.0374 23.5714 26.1526 23.5714 29.0909V44.3636C23.5714 45.5686 22.5907 46.5455 21.3809 46.5455C20.1711 46.5455 19.1904 45.5686 19.1904 44.3636V29.0909C19.1904 25.4837 20.0955 22.1444 22.3769 19.6972Z" fill="#5390A5"/>
<path fill-rule="evenodd" clip-rule="evenodd" d="M46.5718 21.4546C47.7816 21.4546 48.7623 22.4314 48.7623 23.6364V28C48.7623 29.195 49.753 30.1818 50.9528 30.1818H55.3337C56.5435 30.1818 57.5242 31.1587 57.5242 32.3637C57.5242 33.5686 56.5435 34.5455 55.3337 34.5455H50.9528C47.3335 34.5455 44.3813 31.605 44.3813 28V23.6364C44.3813 22.4314 45.3621 21.4546 46.5718 21.4546Z" fill="#5390A5"/>
<path fill-rule="evenodd" clip-rule="evenodd" d="M25.1203 49.3663C25.9758 50.2184 25.9758 51.5998 25.1203 52.4519L22.2883 55.2727L25.1203 58.0936C25.9758 58.9456 25.9758 60.3271 25.1203 61.1791C24.2649 62.0312 22.878 62.0312 22.0225 61.1791L17.6416 56.8155C16.7861 55.9634 16.7861 54.582 17.6416 53.7299L22.0225 49.3663C22.878 48.5143 24.2649 48.5143 25.1203 49.3663Z" fill="#5390A5"/>
<path fill-rule="evenodd" clip-rule="evenodd" d="M28.5942 49.3663C29.4496 48.5143 30.8366 48.5143 31.692 49.3663L36.073 53.7299C36.9284 54.582 36.9284 55.9634 36.073 56.8155L31.692 61.1791C30.8366 62.0312 29.4496 62.0312 28.5942 61.1791C27.7388 60.3271 27.7388 58.9456 28.5942 58.0936L31.4263 55.2727L28.5942 52.4519C27.7388 51.5998 27.7388 50.2184 28.5942 49.3663Z" fill="#5390A5"/>
</svg>
