<svg width="188" height="257" viewBox="0 0 188 257" fill="none" xmlns="http://www.w3.org/2000/svg">
<path fill-rule="evenodd" clip-rule="evenodd" d="M91.7846 47.3435L51.3296 39.8665L50.107 39.6405L50.6517 40.7582L90.7286 122.987L91.1652 123.883L91.1667 123.886L90.2674 124.324L61.4322 138.343L60.5328 138.78L60.0975 137.88L5.16016 24.2603L23.3346 0L97.0562 13.4099L98.0399 13.5888L98.0401 13.5889L97.8578 14.5721L91.7846 47.3435ZM49.2081 40.0787L89.8293 123.425L60.9969 137.443L6.32533 24.3729L23.7641 1.09454L96.874 14.3932L90.9834 46.1785L50.2888 38.6572L48.3397 38.297L49.2081 40.0787ZM210.656 85.3058L217.978 45.9935L218.205 44.7728L217.088 45.3132L133.607 85.6732L133.606 85.6735L133.606 85.6732L119.12 56.0566L118.68 55.1582L119.582 54.7257L233.645 0L258 18.0784L244.513 91.5366L244.333 92.5186L244.333 92.5202L243.349 92.3392L211.456 86.4699L210.473 86.2889L210.656 85.3058ZM217.77 43.8725L134.067 84.3399L120.021 55.624L233.534 1.16263L256.904 18.5102L243.53 91.3557L211.639 85.4868L219.188 44.9559L219.551 43.0117L217.77 43.8725ZM40.022 211.006L47.3444 171.694L47.5275 170.711L46.544 170.53L14.6509 164.661L13.6674 164.48L13.4867 165.463L0 238.896L24.3546 257L138.418 202.274L139.32 201.842L138.88 200.943L124.394 171.326L40.9125 211.687L39.7947 212.227L40.022 211.006ZM123.933 172.66L40.2299 213.127L38.4494 213.988L38.8116 212.044L46.3609 171.513L14.4702 165.644L1.09595 238.465L24.4666 255.837L137.979 201.376L123.933 172.66ZM166.215 206.271L206.661 213.469L207.893 213.688L207.328 212.572L167.285 133.431L166.833 132.538L167.74 132.114L197.467 118.22L252.84 228.499L234.691 251.861L160.945 238.923L159.96 238.75L159.96 238.75L160.149 237.768L166.215 206.271ZM208.785 213.237L168.191 133.007L197.01 119.538L251.663 228.384L234.271 250.771L161.134 237.941L167.011 207.428L207.718 214.673L209.689 215.024L208.785 213.237Z" fill="white"/>
</svg>
