<svg width="12" height="13" viewBox="0 0 12 13" fill="none" xmlns="http://www.w3.org/2000/svg">
<g clip-path="url(#clip0_233_1392)">
<path d="M9.33309 6.03176L3.99294 0.691706C3.86943 0.568097 3.70455 0.5 3.52875 0.5C3.35294 0.5 3.18807 0.568097 3.06456 0.691706L2.67129 1.08487C2.41539 1.34107 2.41539 1.75745 2.67129 2.01326L7.15555 6.49751L2.66632 10.9867C2.5428 11.1104 2.47461 11.2751 2.47461 11.4508C2.47461 11.6267 2.5428 11.7915 2.66632 11.9152L3.05958 12.3083C3.18319 12.4319 3.34797 12.5 3.52377 12.5C3.69958 12.5 3.86445 12.4319 3.98796 12.3083L9.33309 6.96336C9.45689 6.83936 9.52489 6.6738 9.5245 6.49781C9.52489 6.32112 9.45689 6.15566 9.33309 6.03176Z" fill="black"/>
</g>
<defs>
<clipPath id="clip0_233_1392">
<rect width="12" height="12" fill="white" transform="translate(0 0.5)"/>
</clipPath>
</defs>
</svg>
