<svg width="80" height="80" viewBox="0 0 80 80" fill="none" xmlns="http://www.w3.org/2000/svg">
<rect width="80" height="80" rx="16" fill="#5390A5" fill-opacity="0.1"/>
<path fill-rule="evenodd" clip-rule="evenodd" d="M51.5769 26.3287C50.5872 22.2979 48.3924 19.4291 45.5508 17.7456C42.4321 15.8978 38.7318 15.5942 35.4163 16.4719C32.1008 17.3497 29.0215 19.4481 27.1938 22.6026C25.66 25.25 25.0882 28.5033 25.8526 32.1309C17.2921 34.8958 18.1546 48.6612 28.2296 49.3867C28.2785 49.3902 28.3274 49.392 28.3764 49.392H48.3163C51.2538 49.415 54.0767 48.3004 56.2447 46.3175C63.0892 40.2509 60.0125 28.6005 51.5769 26.3287ZM28.4486 35.8488C28.6839 35.85 28.9234 35.8103 29.1577 35.7252C30.2309 35.3352 30.7881 34.1399 30.4023 33.0553C29.147 29.527 29.5827 26.74 30.758 24.7114C31.9621 22.6331 34.0635 21.1447 36.463 20.5094C38.8625 19.8742 41.4116 20.1314 43.462 21.3461C45.4629 22.5316 47.1875 24.7454 47.795 28.4473C47.9443 29.3569 48.6665 30.0596 49.5714 30.1761C55.5964 30.9513 58.0721 39.1597 53.5119 43.188L53.4828 43.2142C52.0618 44.5182 50.2272 45.2346 48.3424 45.2183L28.4552 45.2182C22.6671 44.7362 22.712 36.3326 28.4486 35.8488Z" fill="#5390A5"/>
<path fill-rule="evenodd" clip-rule="evenodd" d="M40.0028 45.2182C41.1433 45.2182 42.0678 46.1525 42.0678 47.3051V53.5657C42.0678 54.7182 41.1433 55.6525 40.0028 55.6525C38.8623 55.6525 37.9377 54.7182 37.9377 53.5657V47.3051C37.9377 46.1525 38.8623 45.2182 40.0028 45.2182Z" fill="#5390A5"/>
<path fill-rule="evenodd" clip-rule="evenodd" d="M40.0025 55.6525C38.862 55.6525 37.9375 56.5868 37.9375 57.7394C37.9375 58.8919 38.862 59.8263 40.0025 59.8263C41.143 59.8263 42.0676 58.8919 42.0676 57.7394C42.0676 56.5868 41.143 55.6525 40.0025 55.6525ZM33.8074 57.7394C33.8074 54.2818 36.581 51.4788 40.0025 51.4788C43.424 51.4788 46.1977 54.2818 46.1977 57.7394C46.1977 61.197 43.424 64 40.0025 64C36.581 64 33.8074 61.197 33.8074 57.7394Z" fill="#5390A5"/>
<path fill-rule="evenodd" clip-rule="evenodd" d="M42.0676 57.7394C42.0676 56.5868 42.9922 55.6525 44.1327 55.6525H52.3929C53.5334 55.6525 54.4579 56.5868 54.4579 57.7394C54.4579 58.8919 53.5334 59.8263 52.3929 59.8263H44.1327C42.9922 59.8263 42.0676 58.8919 42.0676 57.7394Z" fill="#5390A5"/>
<path fill-rule="evenodd" clip-rule="evenodd" d="M25.5474 57.7394C25.5474 56.5868 26.4719 55.6525 27.6124 55.6525H35.8726C37.0131 55.6525 37.9376 56.5868 37.9376 57.7394C37.9376 58.8919 37.0131 59.8263 35.8726 59.8263H27.6124C26.4719 59.8263 25.5474 58.8919 25.5474 57.7394Z" fill="#5390A5"/>
</svg>
