<svg width="80" height="80" viewBox="0 0 80 80" fill="none" xmlns="http://www.w3.org/2000/svg">
<rect width="80" height="80" rx="16" fill="#5390A5" fill-opacity="0.1"/>
<path fill-rule="evenodd" clip-rule="evenodd" d="M20.1126 55.3377C18.3416 55.3377 16.6114 54.8858 15.0433 54.0053C14.2365 53.5898 13.924 52.5503 14.406 51.7683C16.0074 49.2094 16.5856 46.0814 15.8525 43.1397C15.6475 42.3173 15.4179 41.53 15.192 40.7552C14.58 38.6568 13.995 36.651 14.0008 34.2931C14.0281 22.9664 23.4557 13.784 34.7708 14.0037C45.6998 14.2239 54.7069 23.411 54.707 34.343C54.7071 48.6202 39.7444 58.6441 26.535 53.1308C24.7143 54.5599 22.4257 55.3377 20.1126 55.3377ZM17.9606 51.8519C20.4489 52.6247 23.2475 52.0073 25.1663 50.1522C25.6391 49.695 26.3464 49.58 26.9396 49.8637C38.2487 55.2708 51.5586 46.7957 51.5584 34.343C51.5584 25.0506 43.999 17.3386 34.7074 17.1515C25.132 16.9613 17.1723 24.7165 17.1492 34.3007C17.1442 36.36 17.6821 38.1416 18.234 39.9696L18.234 39.9696C18.504 40.8636 18.7772 41.7686 18.992 42.7227C19.6808 45.7839 19.318 49.021 17.9606 51.8519ZM60.8874 66.9999C58.5744 66.9999 56.2857 66.222 54.4652 64.7931C47.4403 67.725 39.084 66.3898 33.3241 61.4155C32.6661 60.8472 32.5934 59.8532 33.1616 59.1951C33.7299 58.5372 34.7238 58.4642 35.3819 59.0327C40.4905 63.4444 47.9721 64.4368 54.0605 61.5261C54.6536 61.2422 55.3607 61.3574 55.8338 61.8146C57.7525 63.6695 60.5512 64.2873 63.0395 63.5141C61.4383 60.1742 61.2164 56.348 62.4573 52.8057C62.4685 52.7738 62.4807 52.7425 62.4938 52.7113C63.4 50.5749 63.8567 48.3043 63.851 45.963C63.8411 41.8348 62.4678 38.0162 59.8795 34.9195C59.322 34.2523 59.4108 33.2596 60.0779 32.7021C60.7448 32.1444 61.7378 32.2334 62.2953 32.9005C65.3173 36.5161 66.9879 41.1523 66.9995 45.9553C67.0062 48.7064 66.4724 51.3763 65.413 53.8919C64.3003 57.1129 64.8121 60.5616 66.594 63.4303C67.0763 64.2124 66.7636 65.252 65.9565 65.6678C64.3888 66.5479 62.6582 66.9998 60.8874 66.9999ZM36.8446 34.4214C36.8446 35.7964 35.7293 36.9111 34.3536 36.9111C32.9779 36.9111 31.8627 35.7964 31.8627 34.4214C31.8627 33.0464 32.9779 31.9318 34.3536 31.9318C35.7293 31.9318 36.8446 33.0464 36.8446 34.4214ZM25.1764 36.9111C26.5522 36.9111 27.6674 35.7964 27.6674 34.4214C27.6674 33.0464 26.5522 31.9318 25.1764 31.9318C23.8007 31.9318 22.6855 33.0464 22.6855 34.4214C22.6855 35.7964 23.8007 36.9111 25.1764 36.9111ZM46.0219 34.4214C46.0219 35.7964 44.9067 36.9111 43.531 36.9111C42.1552 36.9111 41.04 35.7964 41.04 34.4214C41.04 33.0464 42.1552 31.9318 43.531 31.9318C44.9067 31.9318 46.0219 33.0464 46.0219 34.4214Z" fill="#5390A5"/>
</svg>
