<svg width="80" height="80" viewBox="0 0 80 80" fill="none" xmlns="http://www.w3.org/2000/svg">
<rect width="80" height="80" rx="16" fill="#5390A5" fill-opacity="0.1"/>
<path fill-rule="evenodd" clip-rule="evenodd" d="M20.1128 55.3377C18.3418 55.3377 16.6116 54.8858 15.0435 54.0053C14.2368 53.5898 13.9243 52.5503 14.4062 51.7683C16.0076 49.2094 16.5859 46.0814 15.8527 43.1397C15.6478 42.3173 15.4181 41.53 15.1922 40.7552C14.5802 38.6568 13.9953 36.651 14.001 34.2931C14.0283 22.9664 23.4559 13.784 34.771 14.0037C45.7001 14.2239 54.7071 23.411 54.7073 34.343C54.7074 48.6202 39.7447 58.6441 26.5352 53.1308C24.7145 54.5599 22.426 55.3377 20.1128 55.3377ZM17.9608 51.8519C20.4492 52.6247 23.2477 52.0073 25.1666 50.1522C25.6394 49.695 26.3466 49.58 26.9398 49.8637C38.2489 55.2708 51.5588 46.7957 51.5587 34.343C51.5587 25.0506 43.9993 17.3386 34.7077 17.1515C25.1322 16.9613 17.1726 24.7165 17.1495 34.3007C17.1444 36.36 17.6824 38.1416 18.2343 39.9696L18.2343 39.9696C18.5042 40.8636 18.7775 41.7686 18.9922 42.7227C19.6811 45.7839 19.3182 49.021 17.9608 51.8519ZM60.8877 66.9999C58.5746 66.9999 56.2859 66.222 54.4655 64.7931C47.4405 67.725 39.0843 66.3898 33.3243 61.4155C32.6663 60.8472 32.5936 59.8532 33.1618 59.1951C33.7301 58.5372 34.7241 58.4642 35.3821 59.0327C40.4907 63.4444 47.9723 64.4368 54.0608 61.5261C54.6539 61.2422 55.361 61.3574 55.834 61.8146C57.7527 63.6695 60.5514 64.2873 63.0398 63.5141C61.4385 60.1742 61.2167 56.348 62.4576 52.8057C62.4687 52.7738 62.4809 52.7425 62.494 52.7113C63.4003 50.5749 63.8569 48.3043 63.8513 45.963C63.8413 41.8348 62.468 38.0162 59.8798 34.9195C59.3222 34.2523 59.411 33.2596 60.0781 32.7021C60.7451 32.1444 61.738 32.2334 62.2955 32.9005C65.3175 36.5161 66.9882 41.1523 66.9997 45.9553C67.0064 48.7064 66.4726 51.3763 65.4133 53.8919C64.3006 57.1129 64.8123 60.5616 66.5942 63.4303C67.0766 64.2124 66.7638 65.252 65.9568 65.6678C64.389 66.5479 62.6584 66.9998 60.8877 66.9999ZM36.8448 34.4214C36.8448 35.7964 35.7296 36.9111 34.3539 36.9111C32.9782 36.9111 31.8629 35.7964 31.8629 34.4214C31.8629 33.0464 32.9782 31.9318 34.3539 31.9318C35.7296 31.9318 36.8448 33.0464 36.8448 34.4214ZM25.1767 36.9111C26.5524 36.9111 27.6676 35.7964 27.6676 34.4214C27.6676 33.0464 26.5524 31.9318 25.1767 31.9318C23.801 31.9318 22.6857 33.0464 22.6857 34.4214C22.6857 35.7964 23.801 36.9111 25.1767 36.9111ZM46.0221 34.4214C46.0221 35.7964 44.9069 36.9111 43.5312 36.9111C42.1555 36.9111 41.0403 35.7964 41.0403 34.4214C41.0403 33.0464 42.1555 31.9318 43.5312 31.9318C44.9069 31.9318 46.0221 33.0464 46.0221 34.4214Z" fill="#5390A5"/>
</svg>
