<svg width="112" height="112" viewBox="0 0 112 112" fill="none" xmlns="http://www.w3.org/2000/svg">
<rect width="112" height="112" rx="16" fill="#5390A5"/>
<g clip-path="url(#clip0_233_1747)">
<path d="M70.9694 29.1635C66.9629 25.1852 61.6584 23.0001 56.0159 23.0001C55.9648 23.0001 55.9126 23.0003 55.8616 23.0006C50.3529 23.0394 45.1372 25.1977 41.1752 29.0779C37.2123 32.9589 34.9473 38.1286 34.7977 43.6343C34.6416 49.3718 36.7431 54.8058 40.7152 58.9356C43.8431 62.1876 45.5657 66.5131 45.5657 71.1154V79.969C45.5657 81.7879 46.8286 83.3166 48.5232 83.7267V84.9072C48.5232 87.164 50.3592 89 52.616 89H59.3836C61.6403 89 63.4763 87.164 63.4763 84.9072V83.7335C65.1858 83.334 66.4632 81.7984 66.4632 79.969V71.1157C66.4632 66.5735 68.2331 62.1981 71.4471 58.7955C75.1823 54.841 77.2394 49.6664 77.2394 44.2249C77.2394 38.5273 75.0127 33.1783 70.9694 29.1635ZM60.8983 84.9073C60.8983 85.7425 60.2189 86.422 59.3837 86.422H52.6161C51.7809 86.422 51.1015 85.7425 51.1015 84.9073V83.8357H60.8983V84.9073ZM63.8852 79.969C63.8852 80.6795 63.3072 81.2576 62.5966 81.2576H62.1874H49.8124H49.4326C48.722 81.2576 48.144 80.6795 48.144 79.969V72.6374H63.8852V79.969ZM53.9896 70.0593V53.7543H58.0056V70.0592H53.9896V70.0593ZM69.5731 57.0251C66.1542 60.6447 64.167 65.2382 63.9131 70.0592H60.5837V53.7543H61.7423C63.8027 53.7543 65.4792 52.078 65.4792 50.0175V49.8176C65.4792 47.7571 63.8027 46.0808 61.7423 46.0808C59.6819 46.0808 58.0056 47.7571 58.0056 49.8176V51.1762H53.9896V49.8176C53.9896 47.7571 52.3133 46.0808 50.2529 46.0808H49.9989C47.9385 46.0808 46.2622 47.7571 46.2622 49.8176V50.0175C46.2622 52.0779 47.9385 53.7543 49.9989 53.7543H51.4115V70.0592H48.1174C47.8713 65.1835 45.9247 60.6325 42.5734 57.1483C39.0839 53.5203 37.2376 48.7458 37.3749 43.7044C37.6448 33.7799 45.946 25.6488 55.8798 25.5786C60.8934 25.5434 65.6011 27.4662 69.153 30.993C72.7053 34.5201 74.6614 39.2194 74.6614 44.2249C74.6614 49.0055 72.8543 53.5513 69.5731 57.0251ZM60.5837 51.1762V49.8176C60.5837 49.1787 61.1034 48.6589 61.7423 48.6589C62.3813 48.6589 62.901 49.1788 62.901 49.8176V50.0175C62.901 50.6564 62.3813 51.1762 61.7423 51.1762H60.5837ZM51.4114 49.8176V51.1762H49.9988C49.3599 51.1762 48.8402 50.6564 48.8402 50.0175V49.8176C48.8402 49.1787 49.3599 48.6589 49.9988 48.6589H50.2527C50.8916 48.6589 51.4114 49.1789 51.4114 49.8176Z" fill="white"/>
<path d="M69.8325 38.6447C68.7252 35.8957 66.8419 33.5561 64.3863 31.8791C61.8693 30.1601 58.9189 29.2629 55.8616 29.2844C55.1497 29.2895 54.5765 29.8707 54.5816 30.5827C54.5866 31.2915 55.1628 31.8626 55.8704 31.8626C55.8735 31.8626 55.8767 31.8626 55.8797 31.8626C55.91 31.8624 55.9395 31.8623 55.9696 31.8623C61.0458 31.8623 65.5425 34.8948 67.4413 39.608C67.6436 40.1105 68.1269 40.4157 68.6373 40.4157C68.7976 40.4157 68.9608 40.3857 69.1186 40.322C69.7789 40.056 70.0987 39.305 69.8325 38.6447Z" fill="white"/>
<path d="M70.5329 43.3132C70.2932 43.0734 69.9606 42.9355 69.6216 42.9355C69.2826 42.9355 68.95 43.0734 68.7102 43.3132C68.4692 43.5529 68.3325 43.8855 68.3325 44.2245C68.3325 44.5649 68.4692 44.8961 68.7102 45.1359C68.95 45.377 69.2813 45.5136 69.6216 45.5136C69.9606 45.5136 70.2932 45.377 70.5329 45.1359C70.7726 44.8961 70.9106 44.5649 70.9106 44.2245C70.9106 43.8855 70.7727 43.5529 70.5329 43.3132Z" fill="white"/>
<path d="M82.8679 29.4207C82.3644 28.9173 81.5484 28.9173 81.0448 29.4207L78.6432 31.8223C78.1398 32.3257 78.1398 33.142 78.6432 33.6455C78.8949 33.8972 79.2248 34.023 79.5548 34.023C79.8848 34.023 80.2145 33.8972 80.4663 33.6455L82.8679 31.2438C83.3713 30.7404 83.3713 29.9242 82.8679 29.4207Z" fill="white"/>
<path d="M82.8678 57.2063L80.4663 54.8047C79.9629 54.3013 79.1469 54.3013 78.6432 54.8047C78.1398 55.308 78.1398 56.1243 78.6432 56.6276L81.0448 59.0293C81.2966 59.2811 81.6264 59.4069 81.9563 59.4069C82.2862 59.4069 82.616 59.2809 82.8678 59.0293C83.3712 58.5259 83.3712 57.7097 82.8678 57.2063Z" fill="white"/>
<path d="M87.711 42.936H84.3145C83.6026 42.936 83.0254 43.5131 83.0254 44.2251C83.0254 44.937 83.6026 45.5141 84.3145 45.5141H87.711C88.4228 45.5141 89.0001 44.937 89.0001 44.2251C89.0001 43.5131 88.4228 42.936 87.711 42.936Z" fill="white"/>
<path d="M33.3566 31.8225L30.955 29.4208C30.4515 28.9174 29.6356 28.9174 29.1319 29.4208C28.6285 29.9242 28.6285 30.7404 29.1319 31.2439L31.5336 33.6456C31.7853 33.8973 32.1152 34.0231 32.4451 34.0231C32.7749 34.0231 33.1048 33.8973 33.3566 33.6456C33.86 33.1421 33.86 32.326 33.3566 31.8225Z" fill="white"/>
<path d="M33.3566 54.8045C32.8532 54.301 32.0371 54.301 31.5336 54.8045L29.1319 57.2063C28.6285 57.7097 28.6285 58.5259 29.1319 59.0293C29.3837 59.281 29.7136 59.4068 30.0434 59.4068C30.3733 59.4068 30.7032 59.2809 30.9549 59.0293L33.3566 56.6276C33.86 56.1241 33.86 55.308 33.3566 54.8045Z" fill="white"/>
<path d="M27.6856 42.936H24.2891C23.5772 42.936 23 43.5131 23 44.2251C23 44.937 23.5772 45.5141 24.2891 45.5141H27.6856C28.3974 45.5141 28.9747 44.937 28.9747 44.2251C28.9747 43.5131 28.3974 42.936 27.6856 42.936Z" fill="white"/>
</g>
<defs>
<clipPath id="clip0_233_1747">
<rect width="66" height="66" fill="white" transform="translate(23 23)"/>
</clipPath>
</defs>
</svg>
