<svg width="20" height="20" viewBox="0 0 20 20" fill="none" xmlns="http://www.w3.org/2000/svg">
<g opacity="0.7">
<path d="M20 3.63982C19.2563 3.97444 18.4637 4.19623 17.6375 4.30393C18.4875 3.78341 19.1363 2.96547 19.4412 1.97957C18.6488 2.46418 17.7738 2.80649 16.8412 2.99752C16.0887 2.17572 15.0162 1.66675 13.8462 1.66675C11.5763 1.66675 9.74875 3.55649 9.74875 5.87316C9.74875 6.20649 9.77625 6.527 9.84375 6.83213C6.435 6.66162 3.41875 4.98598 1.3925 2.43341C1.03875 3.0629 0.83125 3.78341 0.83125 4.55906C0.83125 6.01547 1.5625 7.30649 2.6525 8.05393C1.99375 8.04111 1.3475 7.84495 0.8 7.53598C0.8 7.5488 0.8 7.56546 0.8 7.58213C0.8 9.62572 2.22125 11.3232 4.085 11.7142C3.75125 11.8078 3.3875 11.8526 3.01 11.8526C2.7475 11.8526 2.4825 11.8373 2.23375 11.7808C2.765 13.4462 4.2725 14.6706 6.065 14.7103C4.67 15.8296 2.89875 16.5039 0.98125 16.5039C0.645 16.5039 0.3225 16.4885 0 16.4462C1.81625 17.6475 3.96875 18.3334 6.29 18.3334C13.835 18.3334 17.96 11.9232 17.96 6.36675C17.96 6.18085 17.9538 6.00136 17.945 5.82316C18.7588 5.23085 19.4425 4.49111 20 3.63982Z" fill="white"/>
</g>
</svg>
