<svg width={80} height={80} viewBox="0 0 80 80" fill="none" xmlns="http://www.w3.org/2000/svg">
  <rect width={80} height={80} rx={16} fill="#5390A5" fillOpacity="0.1" />
  <path fillRule="evenodd" clipRule="evenodd" d="M59.3592 16.2084H21.6409C18.6464 16.2084 16.2084 18.6464 16.2084 21.6409V59.3592C16.2084 62.3537 18.6464 64.7917 21.6409 64.7917H59.3592C62.3537 64.7917 64.7917 62.3537 64.7917 59.3592V21.6409C64.7917 18.6464 62.3537 16.2084 59.3592 16.2084ZM62.5834 21.6409V22.8334H45.683C43.7198 22.8334 41.9818 21.5835 41.3635 19.7196L40.9285 18.4167H59.3592C61.1369 18.4167 62.5834 19.8632 62.5834 21.6409ZM59.3592 62.5834H21.6409C19.8632 62.5834 18.4167 61.1369 18.4167 59.3592V21.6409C18.4167 19.8632 19.8632 18.4167 21.6409 18.4167H38.5987L39.2656 20.4175C40.1887 23.1845 42.7658 25.0417 45.683 25.0417H62.5834V59.3592C62.5834 61.1369 61.1369 62.5834 59.3592 62.5834ZM32.7709 22.8334C33.3807 22.8334 33.875 22.339 33.875 21.7292C33.875 21.1194 33.3807 20.625 32.7709 20.625C32.1611 20.625 31.6667 21.1194 31.6667 21.7292C31.6667 22.339 32.1611 22.8334 32.7709 22.8334ZM29.4584 21.7292C29.4584 22.339 28.964 22.8334 28.3542 22.8334C27.7444 22.8334 27.25 22.339 27.25 21.7292C27.25 21.1194 27.7444 20.625 28.3542 20.625C28.964 20.625 29.4584 21.1194 29.4584 21.7292ZM23.9375 22.8334C24.5474 22.8334 25.0417 22.339 25.0417 21.7292C25.0417 21.1194 24.5474 20.625 23.9375 20.625C23.3277 20.625 22.8334 21.1194 22.8334 21.7292C22.8334 22.339 23.3277 22.8334 23.9375 22.8334ZM53.0036 42.7084H57.0625C57.672 42.7084 58.1667 43.203 58.1667 43.8125V50.4375C58.1667 51.047 57.672 51.5417 57.0625 51.5417H48.2292C47.6197 51.5417 47.125 51.047 47.125 50.4375V43.8125C47.125 43.203 47.6197 42.7084 48.2292 42.7084H49.2517L41.6042 37.1478V53.75H44.9167C45.5262 53.75 46.0209 54.2447 46.0209 54.8542V59.2709C46.0209 59.8804 45.5262 60.375 44.9167 60.375H36.0834C35.4739 60.375 34.9792 59.8804 34.9792 59.2709V54.8542C34.9792 54.2447 35.4739 53.75 36.0834 53.75H39.3959V37.1478L31.7484 42.7084H32.7709C33.3804 42.7084 33.875 43.203 33.875 43.8125V50.4375C33.875 51.047 33.3804 51.5417 32.7709 51.5417H23.9375C23.328 51.5417 22.8334 51.047 22.8334 50.4375V43.8125C22.8334 43.203 23.328 42.7084 23.9375 42.7084H27.9965L37.1058 36.0834H33.875C33.2655 36.0834 32.7709 35.5887 32.7709 34.9792V28.3542C32.7709 27.7447 33.2655 27.25 33.875 27.25H47.125C47.7345 27.25 48.2292 27.7447 48.2292 28.3542V34.9792C48.2292 35.5887 47.7345 36.0834 47.125 36.0834H43.8942L53.0036 42.7084ZM25.0417 49.3334H31.6667V44.9167H25.0417V49.3334ZM37.1875 58.1667H43.8125V55.9584H37.1875V58.1667ZM46.0209 29.4584H34.9792V33.875H40.4978H40.5023H46.0209V29.4584ZM49.3334 49.3334H55.9584V44.9167H49.3334V49.3334Z" fill="#5390A5" />
</svg>
