<svg width="80" height="80" viewBox="0 0 80 80" fill="none" xmlns="http://www.w3.org/2000/svg">
<rect width="80" height="80" rx="16" fill="#5390A5" fill-opacity="0.1"/>
<path fill-rule="evenodd" clip-rule="evenodd" d="M59.3593 16.2084H21.641C18.6465 16.2084 16.2085 18.6464 16.2085 21.6409V59.3592C16.2085 62.3537 18.6465 64.7917 21.641 64.7917H59.3593C62.3538 64.7917 64.7918 62.3537 64.7918 59.3592V21.6409C64.7918 18.6464 62.3538 16.2084 59.3593 16.2084ZM62.5835 21.6409V22.8334H45.6831C43.7199 22.8334 41.982 21.5835 41.3636 19.7196L40.9286 18.4167H59.3593C61.137 18.4167 62.5835 19.8632 62.5835 21.6409ZM59.3593 62.5834H21.641C19.8633 62.5834 18.4168 61.1369 18.4168 59.3592V21.6409C18.4168 19.8632 19.8633 18.4167 21.641 18.4167H38.5988L39.2657 20.4175C40.1888 23.1845 42.7659 25.0417 45.6831 25.0417H62.5835V59.3592C62.5835 61.1369 61.137 62.5834 59.3593 62.5834ZM32.771 22.8334C33.3808 22.8334 33.8752 22.339 33.8752 21.7292C33.8752 21.1194 33.3808 20.625 32.771 20.625C32.1612 20.625 31.6668 21.1194 31.6668 21.7292C31.6668 22.339 32.1612 22.8334 32.771 22.8334ZM29.4585 21.7292C29.4585 22.339 28.9641 22.8334 28.3543 22.8334C27.7445 22.8334 27.2502 22.339 27.2502 21.7292C27.2502 21.1194 27.7445 20.625 28.3543 20.625C28.9641 20.625 29.4585 21.1194 29.4585 21.7292ZM23.9377 22.8334C24.5475 22.8334 25.0418 22.339 25.0418 21.7292C25.0418 21.1194 24.5475 20.625 23.9377 20.625C23.3278 20.625 22.8335 21.1194 22.8335 21.7292C22.8335 22.339 23.3278 22.8334 23.9377 22.8334ZM53.0037 42.7084H57.0627C57.6722 42.7084 58.1668 43.203 58.1668 43.8125V50.4375C58.1668 51.047 57.6722 51.5417 57.0627 51.5417H48.2293C47.6198 51.5417 47.1252 51.047 47.1252 50.4375V43.8125C47.1252 43.203 47.6198 42.7084 48.2293 42.7084H49.2518L41.6043 37.1478V53.75H44.9168C45.5263 53.75 46.021 54.2447 46.021 54.8542V59.2709C46.021 59.8804 45.5263 60.375 44.9168 60.375H36.0835C35.474 60.375 34.9793 59.8804 34.9793 59.2709V54.8542C34.9793 54.2447 35.474 53.75 36.0835 53.75H39.396V37.1478L31.7485 42.7084H32.771C33.3805 42.7084 33.8752 43.203 33.8752 43.8125V50.4375C33.8752 51.047 33.3805 51.5417 32.771 51.5417H23.9377C23.3282 51.5417 22.8335 51.047 22.8335 50.4375V43.8125C22.8335 43.203 23.3282 42.7084 23.9377 42.7084H27.9966L37.106 36.0834H33.8752C33.2657 36.0834 32.771 35.5887 32.771 34.9792V28.3542C32.771 27.7447 33.2657 27.25 33.8752 27.25H47.1252C47.7347 27.25 48.2293 27.7447 48.2293 28.3542V34.9792C48.2293 35.5887 47.7347 36.0834 47.1252 36.0834H43.8944L53.0037 42.7084ZM25.0418 49.3334H31.6668V44.9167H25.0418V49.3334ZM37.1877 58.1667H43.8127V55.9584H37.1877V58.1667ZM46.021 29.4584H34.9793V33.875H40.498H40.5024H46.021V29.4584ZM49.3335 49.3334H55.9585V44.9167H49.3335V49.3334Z" fill="#5390A5"/>
</svg>
