<svg width="23" height="23" viewBox="0 0 23 23" fill="none" xmlns="http://www.w3.org/2000/svg">
<path fill-rule="evenodd" clip-rule="evenodd" d="M9.00329 6.4447C8.64281 6.08422 8.63839 5.50419 8.9934 5.14917L9.96406 4.17852C12.2676 1.875 16.0541 1.91191 18.385 4.24279C20.7239 6.58174 20.7448 10.3681 18.4492 12.6637L17.4786 13.6343C17.1236 13.9894 16.5435 13.9849 16.183 13.6245C15.8226 13.264 15.8181 12.6839 16.1732 12.3289L17.1438 11.3583C18.7309 9.77123 18.7158 7.14487 17.0993 5.52842C15.4879 3.91696 12.8614 3.89197 11.2695 5.48393L10.2988 6.45458C9.9438 6.8096 9.36377 6.80518 9.00329 6.4447Z" fill="#3F3434"/>
<path fill-rule="evenodd" clip-rule="evenodd" d="M4.24258 18.3847C1.90441 16.0465 1.87556 12.2665 4.17831 9.96378L5.14254 8.99955C5.49756 8.64453 6.07758 8.64896 6.43806 9.00944C6.79854 9.36992 6.80297 9.94994 6.44795 10.305L5.48373 11.2692C3.89101 12.8619 3.911 15.4818 5.52822 17.099C7.13968 18.7105 9.76611 18.7355 11.3581 17.1435L12.3223 16.1793C12.6773 15.8243 13.2573 15.8287 13.6178 16.1892C13.9783 16.5497 13.9827 17.1297 13.6277 17.4847L12.6635 18.4489C10.36 20.7525 6.57346 20.7156 4.24258 18.3847Z" fill="#3F3434"/>
<path fill-rule="evenodd" clip-rule="evenodd" d="M8.09997 14.5279C7.73949 14.1675 7.73506 13.5874 8.09008 13.2324L13.2326 8.08988C13.5876 7.73487 14.1677 7.73929 14.5281 8.09977C14.8886 8.46025 14.8931 9.04028 14.538 9.3953L9.39549 14.5378C9.04048 14.8929 8.46045 14.8884 8.09997 14.5279Z" fill="#3F3434"/>
</svg>
